<svg xmlns="http://www.w3.org/2000/svg" viewBox="0 0 500 500"><g id="freepik--background-simple--inject-4"><path d="M475.79,277.05c-13.49,40.89-42.56,85.72-85.35,100.31C325.8,399.42,320,452.43,202.71,452.07a236.91,236.91,0,0,1-50.94-5.47,197.3,197.3,0,0,1-24.12-7c-69.5-25.07-107.55-84.69-113-148.4-7.15-83.8,49.87-126.07,87-151s79.53-117.45,194.87-118a228.73,228.73,0,0,1,52.35,5.59c39.16,9,79.46,30.67,103.67,63.7,1.81,2.48,3.55,5,5.23,7.62C490.46,149.94,494.19,221.29,475.79,277.05Z" style="fill:#398AB7"></path><path d="M475.79,277.05c-13.49,40.89-42.56,85.72-85.35,100.31C325.8,399.42,320,452.43,202.71,452.07a236.91,236.91,0,0,1-50.94-5.47,197.3,197.3,0,0,1-24.12-7c-69.5-25.07-107.55-84.69-113-148.4-7.15-83.8,49.87-126.07,87-151s79.53-117.45,194.87-118a228.73,228.73,0,0,1,52.35,5.59c39.16,9,79.46,30.67,103.67,63.7,1.81,2.48,3.55,5,5.23,7.62C490.46,149.94,494.19,221.29,475.79,277.05Z" style="fill:#fff;opacity:0.7000000000000001"></path></g><g id="freepik--Floor--inject-4"><path d="M475.85,458.34H30.31a.5.5,0,0,1,0-1H475.85a.5.5,0,0,1,0,1Z" style="fill:#263238"></path></g><g id="freepik--Asterisks--inject-4"><path d="M41.82,209.72,40.61,209l1.52-2.12L39.87,206l.49-1.31,2.17,1.15-.23-2.64h1.55l-.25,2.64,2.18-1.15.48,1.31-2.26.88,1.53,2.1-1.24.73-1.23-2.39Z" style="fill:#263238"></path><path d="M49.44,209.72,48.23,209l1.51-2.12L47.49,206,48,204.7l2.17,1.15-.23-2.64h1.55l-.25,2.64,2.18-1.15.48,1.31-2.26.88,1.53,2.1-1.24.73-1.23-2.39Z" style="fill:#263238"></path><path d="M57.06,209.72,55.85,209l1.51-2.12L55.1,206l.5-1.31,2.16,1.15-.23-2.64h1.56l-.25,2.64L61,204.7,61.5,206l-2.26.88,1.53,2.1-1.24.73-1.23-2.39Z" style="fill:#263238"></path><path d="M64.68,209.72,63.47,209,65,206.87,62.72,206l.5-1.31,2.16,1.15-.23-2.64H66.7l-.25,2.64,2.19-1.15.48,1.31-2.26.88,1.53,2.1-1.25.73-1.22-2.39Z" style="fill:#263238"></path><path d="M72.29,209.72l-1.2-.73,1.51-2.12L70.34,206l.5-1.31L73,205.85l-.23-2.64h1.55l-.25,2.64,2.19-1.15.47,1.31-2.25.88L76,209l-1.25.73-1.22-2.39Z" style="fill:#263238"></path><path d="M79.91,209.72l-1.2-.73,1.51-2.12L78,206l.5-1.31,2.16,1.15-.23-2.64h1.55l-.25,2.64,2.19-1.15.47,1.31-2.26.88,1.54,2.1-1.25.73-1.22-2.39Z" style="fill:#263238"></path><path d="M87.53,209.72,86.32,209l1.52-2.12L85.58,206l.5-1.31,2.16,1.15L88,203.21h1.55l-.25,2.64,2.18-1.15L92,206l-2.26.88,1.53,2.1-1.24.73-1.22-2.39Z" style="fill:#263238"></path><path d="M95.15,209.72,93.94,209l1.52-2.12L93.2,206l.49-1.31,2.17,1.15-.23-2.64h1.55l-.25,2.64,2.18-1.15.48,1.31-2.26.88,1.53,2.1-1.24.73-1.23-2.39Z" style="fill:#263238"></path><path d="M102.77,209.72l-1.21-.73,1.51-2.12-2.25-.86.49-1.31,2.17,1.15-.23-2.64h1.55l-.25,2.64,2.18-1.15.48,1.31-2.26.88,1.53,2.1-1.24.73L104,207.33Z" style="fill:#263238"></path><path d="M170.81,46.75,169.6,46l1.51-2.13L168.85,43l.5-1.3,2.16,1.15-.23-2.65h1.56l-.25,2.65,2.18-1.15.48,1.3-2.26.88L174.52,46l-1.24.72-1.23-2.39Z" style="fill:#263238"></path><path d="M178.42,46.75l-1.2-.72,1.51-2.13L176.47,43l.5-1.3,2.16,1.15-.23-2.65h1.55l-.25,2.65,2.19-1.15.48,1.3-2.26.88L182.14,46l-1.25.72-1.22-2.39Z" style="fill:#263238"></path><path d="M186,46.75l-1.2-.72,1.51-2.13L184.09,43l.5-1.3,2.16,1.15-.23-2.65h1.55l-.25,2.65L190,41.74l.47,1.3-2.26.88L189.76,46l-1.25.72-1.22-2.39Z" style="fill:#263238"></path><path d="M193.66,46.75l-1.2-.72L194,43.9,191.71,43l.5-1.3,2.16,1.15-.23-2.65h1.55l-.25,2.65,2.18-1.15.48,1.3-2.26.88L197.37,46l-1.24.72-1.22-2.39Z" style="fill:#263238"></path><path d="M201.28,46.75,200.07,46l1.52-2.13L199.33,43l.5-1.3L202,42.89l-.23-2.65h1.55l-.25,2.65,2.18-1.15.48,1.3-2.26.88L205,46l-1.24.72-1.23-2.39Z" style="fill:#263238"></path><path d="M208.9,46.75,207.69,46l1.52-2.13L207,43l.49-1.3,2.17,1.15-.23-2.65h1.55l-.25,2.65,2.18-1.15.48,1.3-2.26.88L212.61,46l-1.24.72-1.23-2.39Z" style="fill:#263238"></path><path d="M216.52,46.75,215.31,46l1.51-2.13L214.57,43l.49-1.3,2.17,1.15L217,40.24h1.55l-.25,2.65,2.18-1.15L221,43l-2.26.88L220.23,46l-1.24.72-1.23-2.39Z" style="fill:#263238"></path><path d="M224.14,46.75,222.93,46l1.51-2.13L222.18,43l.5-1.3,2.16,1.15-.23-2.65h1.56l-.25,2.65,2.18-1.15.48,1.3-2.26.88L227.85,46l-1.24.72-1.23-2.39Z" style="fill:#263238"></path><path d="M231.76,46.75,230.55,46l1.51-2.13L229.8,43l.5-1.3,2.16,1.15-.23-2.65h1.55l-.24,2.65,2.18-1.15.48,1.3-2.26.88L235.47,46l-1.25.72L233,44.36Z" style="fill:#263238"></path><path d="M403.83,146.73l-1.2-.73,1.51-2.13-2.26-.86.5-1.3,2.16,1.15-.23-2.64h1.55l-.25,2.64,2.19-1.15.47,1.3-2.25.89,1.53,2.1-1.25.73-1.22-2.4Z" style="fill:#263238"></path><path d="M411.45,146.73l-1.2-.73,1.51-2.13L409.5,143l.5-1.3,2.16,1.15-.23-2.64h1.55l-.25,2.64,2.19-1.15.47,1.3-2.26.89,1.54,2.1-1.25.73-1.22-2.4Z" style="fill:#263238"></path><path d="M419.07,146.73l-1.21-.73,1.52-2.13-2.26-.86.5-1.3,2.16,1.15-.23-2.64h1.55l-.25,2.64,2.18-1.15.48,1.3-2.26.89,1.53,2.1-1.24.73-1.22-2.4Z" style="fill:#263238"></path><path d="M426.69,146.73l-1.21-.73,1.52-2.13-2.26-.86.49-1.3,2.17,1.15-.23-2.64h1.55l-.25,2.64,2.18-1.15.48,1.3-2.26.89,1.53,2.1-1.24.73-1.23-2.4Z" style="fill:#263238"></path><path d="M434.31,146.73,433.1,146l1.51-2.13-2.25-.86.49-1.3,2.17,1.15-.23-2.64h1.55l-.25,2.64,2.18-1.15.48,1.3-2.26.89L438,146l-1.24.73-1.23-2.4Z" style="fill:#263238"></path><path d="M441.93,146.73l-1.21-.73,1.51-2.13L440,143l.49-1.3,2.17,1.15-.23-2.64H444l-.25,2.64,2.18-1.15.48,1.3-2.26.89,1.53,2.1-1.24.73-1.23-2.4Z" style="fill:#263238"></path><path d="M449.55,146.73l-1.21-.73,1.51-2.13-2.26-.86.5-1.3,2.16,1.15-.23-2.64h1.56l-.25,2.64,2.18-1.15L454,143l-2.26.89,1.53,2.1-1.24.73-1.23-2.4Z" style="fill:#263238"></path><path d="M457.16,146.73,456,146l1.51-2.13-2.26-.86.5-1.3,2.16,1.15-.23-2.64h1.55l-.25,2.64,2.19-1.15.48,1.3-2.26.89,1.53,2.1-1.25.73-1.22-2.4Z" style="fill:#263238"></path><path d="M464.78,146.73l-1.2-.73,1.51-2.13-2.26-.86.5-1.3,2.16,1.15-.23-2.64h1.55l-.25,2.64,2.19-1.15.47,1.3-2.25.89,1.53,2.1-1.25.73-1.22-2.4Z" style="fill:#263238"></path></g><g id="freepik--user-icons--inject-4"><path d="M73,183.09a24.28,24.28,0,0,1-24.28-24.27A24.27,24.27,0,1,1,73,183.09Zm0-47.55a23.31,23.31,0,0,0-23.28,23.28A23.3,23.3,0,0,0,73,182.09a23.28,23.28,0,1,0,0-46.55Z" style="fill:#263238"></path><path d="M73,165.52a10.43,10.43,0,1,1,10.43-10.43A10.44,10.44,0,0,1,73,165.52Zm0-19.85a9.43,9.43,0,1,0,9.43,9.42A9.44,9.44,0,0,0,73,145.67Z" style="fill:#263238"></path><path d="M73,183.09a24,24,0,0,1-15-5.19.48.48,0,0,1-.17-.5,15.53,15.53,0,0,1,30.34,0,.5.5,0,0,1-.18.5A24.24,24.24,0,0,1,73,183.09Zm-14.13-5.78A23,23,0,0,0,73,182.09a23.22,23.22,0,0,0,14.12-4.78,14.53,14.53,0,0,0-28.25,0Z" style="fill:#263238"></path><path d="M440.7,428.74a24.28,24.28,0,0,1-24.28-24.27,24.27,24.27,0,1,1,24.28,24.27Zm0-47.55a23.31,23.31,0,0,0-23.28,23.28,23.28,23.28,0,0,0,46.56,0A23.3,23.3,0,0,0,440.7,381.19Z" style="fill:#263238"></path><path d="M440.7,411.17a10.43,10.43,0,1,1,10.43-10.43A10.44,10.44,0,0,1,440.7,411.17Zm0-19.86a9.43,9.43,0,1,0,9.43,9.43A9.44,9.44,0,0,0,440.7,391.31Z" style="fill:#263238"></path><path d="M440.7,428.74a24,24,0,0,1-15-5.19.5.5,0,0,1-.18-.5,15.54,15.54,0,0,1,30.35,0,.5.5,0,0,1-.18.5A24.24,24.24,0,0,1,440.7,428.74ZM426.57,423a23,23,0,0,0,14.13,4.78A23.31,23.31,0,0,0,454.82,423a14.53,14.53,0,0,0-28.25,0Z" style="fill:#263238"></path></g><g id="freepik--Padlocks--inject-4"><path d="M454.77,124.41H415.6a.51.51,0,0,1-.5-.5V85.6a.5.5,0,0,1,.5-.5h39.17a.5.5,0,0,1,.5.5v38.31A.51.51,0,0,1,454.77,124.41Zm-38.67-1h38.17V86.1H416.1Z" style="fill:#263238"></path><path d="M453.78,86.11h-6.7V76.8a11.9,11.9,0,1,0-23.79,0v9.31h-6.7V76.8a18.6,18.6,0,1,1,37.19,0Zm-5.7-1h4.7V76.8a17.6,17.6,0,1,0-35.19,0v8.31h4.7V76.8a12.9,12.9,0,1,1,25.79,0Z" style="fill:#263238"></path><path d="M436.82,114.06h-3.27a.5.5,0,0,1-.5-.5V105a5,5,0,1,1,4.27,0v8.59A.5.5,0,0,1,436.82,114.06Zm-2.77-1h2.27v-8.42a.51.51,0,0,1,.32-.47,4,4,0,1,0-2.91,0,.51.51,0,0,1,.32.47Z" style="fill:#263238"></path><path d="M91.67,440.39H52.5a.5.5,0,0,1-.5-.5V401.58a.51.51,0,0,1,.5-.5H91.67a.51.51,0,0,1,.5.5v38.31A.5.5,0,0,1,91.67,440.39Zm-38.67-1H91.17V402.08H53Z" style="fill:#263238"></path><path d="M90.68,402.1H84v-9.32a11.9,11.9,0,0,0-23.79,0v9.32h-6.7v-9.32a18.6,18.6,0,0,1,37.19,0Zm-5.7-1h4.7v-8.32a17.6,17.6,0,0,0-35.19,0v8.32h4.7v-8.32a12.9,12.9,0,0,1,25.79,0Z" style="fill:#263238"></path><path d="M73.72,430H70.45a.5.5,0,0,1-.5-.5V421a5,5,0,0,1-2.87-4.51,5,5,0,1,1,10,0A5,5,0,0,1,74.22,421v8.59A.5.5,0,0,1,73.72,430ZM71,429h2.27v-8.41a.51.51,0,0,1,.32-.47,4,4,0,1,0-2.91,0,.51.51,0,0,1,.32.47Z" style="fill:#263238"></path></g><g id="freepik--Plants--inject-4"><path d="M39.58,352.26c3.53-1.93,8.89-9.16,8.89-9.17s-5.84-2.08-6.23-2.17c-4.47-1-13.69-.22-16.26,4.22a6.06,6.06,0,0,0,3,8.51C32.3,355.14,36.58,353.89,39.58,352.26Z" style="fill:#919191"></path><path d="M62.09,365.79c2.78-2.68,5.87-10.45,6.11-11.07a108.19,108.19,0,0,0,13.64,4.41c2.7.7,5.44,1.32,8.19,1.9-1.3-.08-2.46-.14-2.62-.13-4.57.24-13.27,3.4-14.58,8.36A6.07,6.07,0,0,0,78,376.67c3.57.57,7.37-1.77,9.84-4.14s5.26-9,6-10.73c1.06.21,2.11.44,3.17.64,5.09,1,10.17,2,15.12,3.1,1.75.39,3.45.84,5.16,1.28-1.15-.07-2.12-.12-2.27-.11-4.58.24-13.27,3.4-14.58,8.36a6.07,6.07,0,0,0,5.16,7.41c3.58.57,7.38-1.77,9.84-4.14s5-8.34,5.85-10.42c1.73.51,3.47,1,5.13,1.58,1.12.42,2.23.74,3.34,1.22l3.28,1.34c2.05.93,4.18,1.87,6.16,2.83,1.38.65,2.68,1.3,4,1.95-1.73-.41-5.14-1.14-5.43-1.17-4.56-.45-13.63,1.36-15.68,6.06a6.07,6.07,0,0,0,4,8.11c3.45,1.1,7.56-.63,10.35-2.6,3.08-2.18,7.18-9.09,7.68-10,2.18,1.08,4.28,2.16,6.25,3.2,4.36,2.3,8.19,4.46,11.4,6.33l2.06-2.66c-3.37-1.87-7.42-4-12.07-6.37-2.2-1.11-4.58-2.25-7-3.4a64.74,64.74,0,0,0,1.69-7.56c3.86-.33,10.61-3.6,11.48-4,1.22,2.1,2.38,4.16,3.45,6.12,2.24,4.09,4.15,7.81,5.75,11l2.23-2.88c-1.53-2.88-3.31-6.12-5.33-9.64-1.23-2.14-2.58-4.41-4-6.72.75-.63,6.85-5.89,8.45-9.3,1.45-3.1,2.44-7.45.75-10.65a6.07,6.07,0,0,0-8.68-2.5c-4.27,2.84-4.46,12.09-3.22,16.5.08.26,1.19,3,1.92,4.7-.58-.94-1.14-1.86-1.75-2.82-1.19-1.91-2.44-3.78-3.78-5.8L151.59,348c-.67-1-1.5-1.93-2.25-2.9-1.78-2.23-3.7-4.4-5.69-6.54,1.67-1.05,7.55-4.86,9.46-7.72s3.54-7,2.35-10.41a6.07,6.07,0,0,0-8.2-3.79c-4.65,2.16-6.24,11.28-5.68,15.82,0,.29.81,3.5,1.26,5.26-1.2-1.28-2.39-2.56-3.65-3.81-3.63-3.62-7.42-7.16-11.18-10.72l-3.43-3.28c.6-.37,7.68-4.76,9.82-7.95,1.9-2.85,3.54-7,2.35-10.42a6.06,6.06,0,0,0-8.2-3.78c-4.65,2.16-6.24,11.27-5.68,15.82,0,.34,1.16,5,1.5,6.13-2.51-2.42-5-4.84-7.34-7.34a105.51,105.51,0,0,1-8.89-10.64c.28-.17,7.69-4.71,9.88-8,1.91-2.84,3.54-7,2.35-10.41a6.06,6.06,0,0,0-8.2-3.78c-4.65,2.16-6.24,11.27-5.67,15.81,0,.36,1.24,5.34,1.52,6.22-.15-.21-.34-.42-.49-.64a78.49,78.49,0,0,1-6.84-12.1c-1.09-2.32-2-4.6-2.83-6.84,1.47-.7,8.13-4,10.43-6.73s4.29-6.56,3.48-10.09a6.06,6.06,0,0,0-7.73-4.66c-4.86,1.64-7.44,10.52-7.38,15.1,0,.25.32,2.78.57,4.61-.36-1-.75-2.05-1.08-3C94.91,273.47,94,270,93.23,267c-.43-1.74-.79-3.32-1.1-4.8,1.08-1.45,5.36-7.31,6.12-10.73s.78-7.8-1.56-10.57a6.07,6.07,0,0,0-9-.57c-3.56,3.69-1.76,12.77.41,16.8.18.35,3.73,5.47,3.79,5.4l.07-.09c.27,1.44.58,3,1,4.64.72,3.08,1.55,6.55,2.71,10.27a107.69,107.69,0,0,0,4.32,11.81,78.9,78.9,0,0,0,6.66,12.4l.1.14c-1.17-.95-4.54-3.47-4.82-3.63-3.94-2.32-12.94-4.48-16.77-1.07a6.07,6.07,0,0,0,.22,9c2.67,2.44,7.13,2.59,10.49,2,3.8-.69,10.66-5.48,11.2-5.86A109.2,109.2,0,0,0,116,313.32c1.87,2.07,3.82,4.09,5.79,6.1-1-.78-2-1.47-2.11-1.56-3.95-2.32-12.94-4.48-16.77-1.06a6.07,6.07,0,0,0,.21,9c2.67,2.44,7.13,2.59,10.5,2s9.34-4.59,10.9-5.66c.76.77,1.52,1.54,2.29,2.29,3.69,3.65,7.39,7.26,10.9,10.92,1.25,1.29,2.42,2.61,3.6,3.92-.92-.69-1.71-1.27-1.84-1.35-3.95-2.31-12.94-4.48-16.77-1.06a6.07,6.07,0,0,0,.22,9c2.67,2.44,7.13,2.59,10.49,2s8.77-4.2,10.62-5.46c1.17,1.37,2.34,2.75,3.41,4.14.71,1,1.46,1.85,2.12,2.86l2,2.93c1.2,1.9,2.45,3.86,3.58,5.75.79,1.31,1.52,2.57,2.26,3.84-1.22-1.3-3.66-3.79-3.89-4a23.54,23.54,0,0,0-11-4.53,7.52,7.52,0,0,0-1.11-.76,6.07,6.07,0,0,0-8.62,2.71c-2,4.72,3,12.54,6.42,15.53.2.17,2.64,1.84,4.19,2.86l-3-1.39c-2-.93-4.12-1.8-6.35-2.75l-3.31-1.26c-1.09-.45-2.3-.78-3.47-1.18-2.72-.87-5.51-1.62-8.35-2.31.81-1.8,3.61-8.22,3.63-11.66s-.91-7.78-3.79-10a6.05,6.05,0,0,0-8.92,1.37c-2.69,4.36,1,12.84,4,16.32.18.22,2.6,2.48,4,3.69-1.71-.4-3.41-.81-5.15-1.16-5-1-10.14-1.89-15.24-2.78-1.56-.27-3.11-.56-4.67-.84.3-.64,3.78-8.2,3.81-12.05,0-3.42-.91-7.78-3.79-10a6.07,6.07,0,0,0-8.93,1.36c-2.69,4.37,1,12.85,4,16.33.23.26,3.71,3.51,4.64,4.29-3.43-.63-6.84-1.29-10.17-2.07a105.75,105.75,0,0,1-13.29-4c.14-.3,3.82-8.18,3.84-12.12,0-3.42-.91-7.78-3.79-10A6.06,6.06,0,0,0,60,333c-2.69,4.37,1,12.84,4,16.32.23.28,4,3.76,4.7,4.35-.25-.1-.52-.17-.77-.26a79.67,79.67,0,0,1-12.37-6.32c-2.19-1.34-4.21-2.74-6.14-4.14.84-1.4,4.58-7.83,5-11.37s0-7.84-2.66-10.34a6.06,6.06,0,0,0-9,.38c-3.16,4-.41,12.88,2.17,16.66.14.21,1.8,2.14,3,3.54-.86-.65-1.76-1.3-2.58-1.94-3-2.38-5.71-4.75-8-6.87-1.32-1.22-2.49-2.34-3.57-3.41.1-1.8.43-9.05-.81-12.33s-3.66-6.93-7.13-7.94A6.07,6.07,0,0,0,18,313.83c-.93,5.05,5.58,11.62,9.61,13.79.35.19,6.14,2.5,6.14,2.41s0-.09,0-.11c1,1,2.13,2.15,3.36,3.34,2.29,2.17,4.9,4.61,7.92,7.07a107.25,107.25,0,0,0,10.12,7.47,78.27,78.27,0,0,0,12.39,6.67l.16.06c-1.49-.14-5.69-.39-6-.38-4.57.25-13.26,3.41-14.57,8.37a6.07,6.07,0,0,0,5.16,7.41C55.83,370.5,59.63,368.16,62.09,365.79Z" style="fill:#919191"></path><path d="M97,281.53c.08,0-3.73-5-4-5.24-3.2-3.28-11.3-7.74-15.9-5.46a6.07,6.07,0,0,0-2.17,8.77c1.93,3.06,6.19,4.38,9.6,4.67C88.51,284.61,97,281.53,97,281.53Z" style="fill:#919191"></path><path d="M460.29,352.26c-3.53-1.93-8.89-9.16-8.89-9.17s5.84-2.08,6.23-2.17c4.47-1,13.69-.22,16.26,4.22a6.06,6.06,0,0,1-3,8.51C467.57,355.14,463.29,353.89,460.29,352.26Z" style="fill:#919191"></path><path d="M437.78,365.79c-2.78-2.68-5.86-10.45-6.11-11.07A107.66,107.66,0,0,1,418,359.13c-2.7.7-5.44,1.32-8.19,1.9,1.3-.08,2.46-.14,2.62-.13,4.57.24,13.27,3.4,14.58,8.36a6.07,6.07,0,0,1-5.16,7.41c-3.58.57-7.38-1.77-9.84-4.14s-5.27-9-6-10.73c-1.06.21-2.11.44-3.17.64-5.09,1-10.17,2-15.12,3.1-1.75.39-3.45.84-5.16,1.28,1.15-.07,2.12-.12,2.27-.11,4.58.24,13.27,3.4,14.58,8.36a6.06,6.06,0,0,1-5.16,7.41c-3.58.57-7.38-1.77-9.84-4.14s-5-8.34-5.85-10.42c-1.73.51-3.47,1-5.13,1.58-1.12.42-2.23.74-3.34,1.22l-3.28,1.34c-2.05.93-4.17,1.87-6.15,2.83-1.39.65-2.69,1.3-4,1.95,1.73-.41,5.14-1.14,5.44-1.17,4.55-.45,13.62,1.36,15.67,6.06a6.06,6.06,0,0,1-4,8.11c-3.45,1.1-7.56-.63-10.35-2.6-3.08-2.18-7.18-9.09-7.68-10-2.18,1.08-4.28,2.16-6.25,3.2-4.36,2.3-8.19,4.46-11.4,6.33l-2.06-2.66c3.37-1.87,7.42-4,12.07-6.37,2.2-1.11,4.58-2.25,7-3.4a64.74,64.74,0,0,1-1.69-7.56c-3.86-.33-10.61-3.6-11.48-4-1.22,2.1-2.38,4.16-3.45,6.12-2.24,4.09-4.15,7.81-5.75,11l-2.23-2.88c1.53-2.88,3.31-6.12,5.33-9.64,1.23-2.14,2.58-4.41,4-6.72-.76-.63-6.86-5.89-8.46-9.3-1.45-3.1-2.44-7.45-.75-10.65a6.07,6.07,0,0,1,8.68-2.5c4.27,2.84,4.46,12.09,3.22,16.5-.08.26-1.19,3-1.92,4.7.59-.94,1.14-1.86,1.75-2.82,1.2-1.91,2.44-3.78,3.78-5.8l2.06-2.88c.67-1,1.5-1.93,2.25-2.9,1.78-2.23,3.7-4.4,5.69-6.54-1.67-1.05-7.55-4.86-9.46-7.72s-3.54-7-2.35-10.41a6.07,6.07,0,0,1,8.2-3.79c4.65,2.16,6.24,11.28,5.68,15.82,0,.29-.81,3.5-1.26,5.26,1.2-1.28,2.39-2.56,3.65-3.81,3.63-3.62,7.42-7.16,11.18-10.72l3.43-3.28c-.6-.37-7.68-4.76-9.82-7.95-1.9-2.85-3.54-7-2.35-10.42a6.06,6.06,0,0,1,8.2-3.78c4.65,2.16,6.24,11.27,5.68,15.82-.05.34-1.16,5-1.5,6.13,2.51-2.42,5-4.84,7.34-7.34a105.51,105.51,0,0,0,8.89-10.64c-.28-.17-7.69-4.71-9.88-8-1.91-2.84-3.54-7-2.35-10.41a6.06,6.06,0,0,1,8.2-3.78c4.65,2.16,6.24,11.27,5.67,15.81,0,.36-1.24,5.34-1.52,6.22.15-.21.34-.42.49-.64a78.49,78.49,0,0,0,6.84-12.1c1.09-2.32,2-4.6,2.83-6.84-1.46-.7-8.13-4-10.43-6.73s-4.29-6.56-3.48-10.09a6.06,6.06,0,0,1,7.73-4.66c4.86,1.64,7.44,10.52,7.38,15.1,0,.25-.31,2.78-.57,4.61.36-1,.76-2.05,1.08-3,1.24-3.68,2.15-7.12,2.92-10.18.43-1.74.79-3.32,1.1-4.8-1.08-1.45-5.35-7.31-6.12-10.73s-.78-7.8,1.56-10.57a6.07,6.07,0,0,1,9-.57c3.56,3.69,1.76,12.77-.4,16.8-.19.35-3.74,5.47-3.8,5.4l-.06-.09c-.28,1.44-.59,3-1,4.64-.71,3.08-1.55,6.55-2.71,10.27a107.69,107.69,0,0,1-4.32,11.81,78.9,78.9,0,0,1-6.66,12.4l-.1.14c1.18-.95,4.54-3.47,4.82-3.63,3.95-2.32,12.94-4.48,16.77-1.07a6.06,6.06,0,0,1-.22,9c-2.67,2.44-7.13,2.59-10.49,2-3.8-.69-10.66-5.48-11.2-5.86a109.2,109.2,0,0,1-8.94,11.21c-1.87,2.07-3.81,4.09-5.79,6.1,1-.78,2-1.47,2.11-1.56,3.95-2.32,12.95-4.48,16.78-1.06a6.08,6.08,0,0,1-.22,9c-2.67,2.44-7.13,2.59-10.49,2s-9.35-4.59-10.91-5.66c-.76.77-1.52,1.54-2.29,2.29-3.69,3.65-7.39,7.26-10.9,10.92-1.24,1.29-2.42,2.61-3.6,3.92.93-.69,1.71-1.27,1.84-1.35,3.95-2.31,12.94-4.48,16.77-1.06a6.06,6.06,0,0,1-.22,9c-2.67,2.44-7.13,2.59-10.49,2s-8.77-4.2-10.62-5.46c-1.17,1.37-2.34,2.75-3.41,4.14-.71,1-1.46,1.85-2.12,2.86l-2,2.93c-1.2,1.9-2.45,3.86-3.58,5.75-.79,1.31-1.52,2.57-2.26,3.84,1.22-1.3,3.66-3.79,3.89-4a23.54,23.54,0,0,1,11-4.53,7.52,7.52,0,0,1,1.11-.76,6.07,6.07,0,0,1,8.62,2.71c2,4.72-2.95,12.54-6.42,15.53-.2.17-2.63,1.84-4.19,2.86l3-1.39c2.05-.93,4.12-1.8,6.35-2.75l3.31-1.26c1.09-.45,2.31-.78,3.47-1.18,2.72-.87,5.52-1.62,8.35-2.31-.81-1.8-3.61-8.22-3.63-11.66s.91-7.78,3.79-10a6.07,6.07,0,0,1,8.93,1.37c2.68,4.36-1,12.84-4,16.32-.18.22-2.6,2.48-3.95,3.69,1.71-.4,3.41-.81,5.15-1.16,5-1,10.14-1.89,15.24-2.78,1.56-.27,3.11-.56,4.67-.84-.3-.64-3.78-8.2-3.8-12.05,0-3.42.9-7.78,3.78-10a6.07,6.07,0,0,1,8.93,1.36c2.69,4.37-1,12.85-4,16.33-.23.26-3.71,3.51-4.64,4.29,3.43-.63,6.84-1.29,10.18-2.07a106.09,106.09,0,0,0,13.28-4c-.14-.3-3.82-8.18-3.84-12.12,0-3.42.91-7.78,3.79-10a6.07,6.07,0,0,1,8.93,1.37c2.68,4.37-1,12.84-4,16.32-.23.28-4,3.76-4.7,4.35.25-.1.52-.17.77-.26a79.23,79.23,0,0,0,12.37-6.32c2.19-1.34,4.21-2.74,6.14-4.14-.84-1.4-4.58-7.83-5-11.37s0-7.84,2.66-10.34a6.07,6.07,0,0,1,9,.38c3.15,4,.4,12.88-2.18,16.66-.14.21-1.79,2.14-3,3.54.86-.65,1.76-1.3,2.58-1.94,3.06-2.38,5.71-4.75,8.05-6.87,1.31-1.22,2.48-2.34,3.56-3.41-.1-1.8-.43-9.05.81-12.33s3.66-6.93,7.13-7.94a6.07,6.07,0,0,1,7.84,4.49c.93,5.05-5.58,11.62-9.61,13.79-.35.19-6.14,2.5-6.14,2.41s0-.09,0-.11c-1,1-2.12,2.15-3.36,3.34-2.29,2.17-4.9,4.61-7.92,7.07a107.25,107.25,0,0,1-10.12,7.47,78.27,78.27,0,0,1-12.39,6.67l-.16.06c1.5-.14,5.69-.39,6-.38,4.57.25,13.26,3.41,14.57,8.37a6.07,6.07,0,0,1-5.16,7.41C444,370.5,440.25,368.16,437.78,365.79Z" style="fill:#919191"></path><path d="M402.9,281.53c-.09,0,3.72-5,4-5.24,3.2-3.28,11.3-7.74,15.9-5.46A6.07,6.07,0,0,1,425,279.6c-1.93,3.06-6.19,4.38-9.59,4.67C411.36,284.61,402.9,281.53,402.9,281.53Z" style="fill:#919191"></path><path d="M299.36,62.74c-3.2,2.42-12,4.34-12,4.34s.5-6.18.58-6.57c.95-4.48,5.42-12.58,10.53-13.1A6.07,6.07,0,0,1,305,53.66C305,57.28,302.08,60.67,299.36,62.74Z" style="fill:#919191"></path><path d="M302.46,88.82c-3.58,1.43-11.94,1.05-12.6,1a106.89,106.89,0,0,1-1.58,14.25c-.47,2.75-1,5.5-1.63,8.25.46-1.22.88-2.3,1-2.44,2.1-4.07,8.56-10.7,13.61-9.86a6.07,6.07,0,0,1,4.64,7.75c-1,3.49-4.64,6-7.81,7.27s-10.36,1.11-12.24,1c-.24,1.05-.47,2.11-.72,3.16-1.17,5-2.37,10.08-3.38,15-.36,1.76-.65,3.5-.95,5.24.41-1.08.76-2,.83-2.12,2.1-4.07,8.55-10.7,13.61-9.86a6.07,6.07,0,0,1,4.64,7.75c-.95,3.49-4.64,6-7.82,7.27s-9.65,1.13-11.9,1c-.25,1.79-.5,3.59-.66,5.33-.09,1.2-.25,2.34-.27,3.54s-.08,2.38-.12,3.54c0,2.26,0,4.58.05,6.78,0,1.53.09,3,.14,4.46.34-1.75,1.07-5.16,1.16-5.44,1.46-4.34,6.83-11.87,12-11.81a6.07,6.07,0,0,1,5.76,7c-.41,3.6-3.68,6.63-6.62,8.37-3.25,1.92-11.23,2.81-12.23,2.92.09,2.43.21,4.79.35,7,.31,4.92.7,9.3,1.09,13l-3.27.79c-.32-3.84-.64-8.43-.85-13.62-.11-2.46-.17-5.1-.21-7.81a65.55,65.55,0,0,1-7.59-1.56c-1.89,3.38-7.65,8.19-8.39,8.81,1.41,2,2.81,3.88,4.16,5.66,2.81,3.72,5.42,7,7.7,9.77l-3.54.85c-2-2.58-4.23-5.53-6.6-8.82-1.45-2-3-4.16-4.49-6.39-.89.42-8.18,3.83-12,3.89-3.42,0-7.79-.84-10-3.7a6.07,6.07,0,0,1,1.28-8.94c4.35-2.73,12.86.9,16.36,3.84.21.18,2.25,2.31,3.51,3.68-.62-.92-1.23-1.8-1.86-2.75-1.25-1.88-2.44-3.78-3.73-5.83l-1.79-3.06c-.61-1-1.14-2.15-1.72-3.24-1.29-2.54-2.48-5.18-3.62-7.87-1.64,1.09-7.53,4.88-10.92,5.45s-7.83.36-10.46-2.13a6.07,6.07,0,0,1-.09-9c3.88-3.36,12.84-1.06,16.76,1.32.24.14,2.86,2.17,4.27,3.31-.67-1.63-1.34-3.24-2-4.9-1.81-4.79-3.49-9.71-5.18-14.6-.52-1.49-1.06-3-1.59-4.47-.58.39-7.49,5.05-11.28,5.69-3.37.57-7.83.35-10.46-2.13a6.08,6.08,0,0,1-.09-9c3.88-3.35,12.84-1.06,16.76,1.32.29.18,4.05,3.1,5,3.89-1.17-3.29-2.36-6.55-3.67-9.71a107.42,107.42,0,0,0-6.05-12.47c-.27.18-7.46,5.07-11.34,5.73-3.38.57-7.83.35-10.47-2.13a6.09,6.09,0,0,1-.08-9c3.88-3.35,12.84-1.06,16.76,1.32.3.19,4.35,3.33,5,3.95-.13-.23-.25-.49-.38-.72a78.06,78.06,0,0,0-8.23-11.2c-1.67-1.94-3.37-3.71-5.07-5.39-1.24,1-7,5.78-10.42,6.75s-7.74,1.22-10.63-1a6.06,6.06,0,0,1-1.08-9c3.49-3.77,12.65-2.47,16.8-.53.23.1,2.4,1.42,4,2.41-.77-.75-1.56-1.53-2.32-2.23-2.84-2.64-5.61-4.88-8.08-6.84-1.41-1.11-2.71-2.08-3.93-3-1.76.4-8.87,1.88-12.3,1.18s-7.43-2.49-9-5.76a6.07,6.07,0,0,1,3.18-8.45c4.83-1.73,12.36,3.64,15.15,7.27.24.31,3.46,5.65,3.36,5.67l-.1,0q1.78,1.25,3.84,2.77c2.51,1.92,5.33,4.1,8.24,6.69a108.2,108.2,0,0,1,9,8.79A79,79,0,0,1,225.6,103s.05.1.08.14c-.38-1.45-1.3-5.55-1.33-5.87-.5-4.56,1.22-13.65,5.91-15.74a6.07,6.07,0,0,1,8.14,3.91c1.14,3.44-.56,7.56-2.5,10.38-2.2,3.17-9.38,7.46-10,7.81a106.08,106.08,0,0,1,6.55,12.75c1.12,2.55,2.17,5.15,3.19,7.78-.29-1.27-.54-2.4-.55-2.57-.5-4.55,1.23-13.64,5.91-15.73a6.07,6.07,0,0,1,8.14,3.91c1.14,3.44-.56,7.56-2.5,10.38s-8,6.64-9.64,7.62c.38,1,.77,2,1.15,3,1.81,4.85,3.59,9.71,5.48,14.42.67,1.66,1.38,3.27,2.09,4.89-.25-1.13-.45-2.08-.47-2.23-.49-4.55,1.23-13.64,5.91-15.73a6.07,6.07,0,0,1,8.15,3.91c1.13,3.43-.56,7.56-2.51,10.37s-7.43,6.27-9.34,7.44c.77,1.63,1.55,3.27,2.38,4.82.59,1,1.08,2.08,1.73,3.1s1.24,2,1.85,3c1.25,1.88,2.52,3.82,3.78,5.62.87,1.26,1.72,2.45,2.58,3.64-.69-1.64-2-4.89-2-5.18a23.61,23.61,0,0,1,.38-11.88,6.74,6.74,0,0,1-.23-1.33,6.06,6.06,0,0,1,6-6.74c5.13.12,10.23,7.84,11.53,12.23.08.25.6,3.16.89,5,0-1.11,0-2.19,0-3.32,0-2.26.05-4.51.1-6.92q.1-1.75.21-3.54c0-1.18.23-2.43.35-3.65.32-2.84.79-5.7,1.32-8.56-2,0-9-.09-12.12-1.48s-6.72-4-7.55-7.55a6.06,6.06,0,0,1,4.91-7.58c5.09-.66,11.3,6.2,13.25,10.34.12.26,1.19,3.39,1.74,5.12.34-1.72.66-3.44,1.06-5.17,1.13-5,2.44-10,3.72-15,.4-1.53.77-3.07,1.15-4.6-.7,0-9,.08-12.55-1.48-3.12-1.39-6.72-4-7.55-7.55a6.07,6.07,0,0,1,4.92-7.58c5.08-.66,11.29,6.2,13.24,10.34.15.31,1.68,4.82,2,6,.84-3.39,1.64-6.76,2.29-10.13a107.59,107.59,0,0,0,1.84-13.74c-.33,0-9,.12-12.63-1.48-3.13-1.38-6.72-4-7.55-7.55a6.07,6.07,0,0,1,4.92-7.57c5.08-.66,11.29,6.19,13.24,10.34.16.32,1.8,5.17,2,6.07,0-.27.07-.54.08-.81a78.61,78.61,0,0,0-.68-13.88c-.32-2.54-.77-5-1.26-7.29-1.61.19-9,1-12.41-.12s-7.13-3.26-8.34-6.67a6.07,6.07,0,0,1,4.05-8.07c5-1.22,11.91,4.92,14.31,8.82.13.21,1.21,2.52,2,4.21-.24-1-.46-2.14-.71-3.15-.92-3.77-2-7.16-3-10.16-.57-1.7-1.12-3.23-1.64-4.65-1.69-.64-8.43-3.32-10.91-5.8s-4.82-6.18-4.32-9.76a6.07,6.07,0,0,1,7.32-5.3c5,1.22,8.3,9.85,8.62,14.42,0,.39-.24,6.62-.32,6.59l-.1,0c.53,1.36,1.09,2.82,1.66,4.43,1,3,2.19,6.37,3.2,10.13a109.38,109.38,0,0,1,2.66,12.29,79.64,79.64,0,0,1,1,14,.88.88,0,0,1,0,.17c.49-1.42,2-5.35,2.14-5.64,2.1-4.07,8.55-10.7,13.6-9.86a6.07,6.07,0,0,1,4.64,7.75C309.32,85,305.63,87.54,302.46,88.82Z" style="fill:#919191"></path><path d="M211.31,86c-.07.07-3-5.43-3.14-5.8-1.68-4.26-2.42-13.48,1.55-16.73a6.06,6.06,0,0,1,8.88,1.62c2,3,1.46,7.44.32,10.67C217.59,79.58,211.31,86,211.31,86Z" style="fill:#919191"></path></g><g id="freepik--Device--inject-4"><polygon points="373.66 122.5 373.66 109.58 365.12 109.58 128.2 346.49 128.2 367.96 373.66 122.5" style="fill:#fff"></polygon><polygon points="128.2 176.83 128.2 261 279.63 109.58 195.45 109.58 128.2 176.83" style="fill:#fff"></polygon><polygon points="337.12 434.5 373.66 397.96 373.66 313.79 252.95 434.5 337.12 434.5" style="fill:#fff"></polygon><rect x="110.57" y="86.24" width="280.72" height="371.6" rx="10.21" style="fill:#263238"></rect><rect x="128.2" y="109.58" width="245.46" height="324.93" style="fill:#398AB7"></rect><polygon points="110.57 143.21 110.57 247.17 271.5 86.24 167.54 86.24 110.57 143.21" style="fill:#fff;opacity:0.2"></polygon><path d="M391.29,98.57V95.31a9.07,9.07,0,0,0-9.07-9.07H377.1L110.57,352.77v26.52Z" style="fill:#fff;opacity:0.2"></path><polygon points="391.29 438.81 391.29 334.85 268.29 457.84 372.26 457.84 391.29 438.81" style="fill:#fff;opacity:0.2"></polygon><rect x="193.37" y="237.37" width="115.11" height="19.52" style="fill:#fff"></rect><path d="M308.49,257.39H193.37a.5.5,0,0,1-.5-.5V237.37a.51.51,0,0,1,.5-.5H308.49a.51.51,0,0,1,.5.5v19.52A.5.5,0,0,1,308.49,257.39Zm-114.62-1H308V237.87H193.87Z" style="fill:#263238"></path><rect x="193.37" y="273.72" width="115.11" height="19.52" style="fill:#fff"></rect><path d="M308.49,293.75H193.37a.51.51,0,0,1-.5-.5V273.72a.51.51,0,0,1,.5-.5H308.49a.51.51,0,0,1,.5.5v19.53A.51.51,0,0,1,308.49,293.75Zm-114.62-1H308V274.22H193.87Z" style="fill:#263238"></path><rect x="219.6" y="310.31" width="62.65" height="19.52" rx="4.84" style="fill:#263238"></rect><path d="M277.41,330.33h-53A5.35,5.35,0,0,1,219.1,325v-9.84a5.35,5.35,0,0,1,5.35-5.34h53a5.34,5.34,0,0,1,5.34,5.34V325A5.35,5.35,0,0,1,277.41,330.33Zm-53-19.52a4.35,4.35,0,0,0-4.35,4.34V325a4.35,4.35,0,0,0,4.35,4.34h53a4.34,4.34,0,0,0,4.34-4.34v-9.84a4.34,4.34,0,0,0-4.34-4.34Z" style="fill:#263238"></path><path d="M270.7,175.83A19.8,19.8,0,1,1,250.91,156,19.72,19.72,0,0,1,270.7,175.83Z" style="fill:#fff"></path><path d="M250.91,196.12a20.3,20.3,0,1,1,12.52-4.33A20.28,20.28,0,0,1,250.91,196.12Zm0-39.59A19.29,19.29,0,0,0,239,191a19,19,0,0,0,11.93,4.12,19.3,19.3,0,0,0,0-38.59Z" style="fill:#263238"></path><circle cx="250.9" cy="172.73" r="8.27" transform="translate(-48.65 228.01) rotate(-45)" style="fill:#263238"></circle><path d="M250.9,181.5a8.77,8.77,0,1,1,8.77-8.77A8.77,8.77,0,0,1,250.9,181.5Zm0-16.53a7.77,7.77,0,1,0,7.77,7.76A7.77,7.77,0,0,0,250.9,165Z" style="fill:#263238"></path><path d="M263.13,191.39a19.74,19.74,0,0,1-24.45,0,12.52,12.52,0,0,1,24.45,0Z" style="fill:#263238"></path><path d="M250.91,196.12a20.28,20.28,0,0,1-12.54-4.34.49.49,0,0,1-.18-.49,13,13,0,0,1,25.42,0,.48.48,0,0,1-.17.49A20.31,20.31,0,0,1,250.91,196.12Zm-11.68-4.93a19,19,0,0,0,11.68,3.93,19.3,19.3,0,0,0,11.66-3.93,12,12,0,0,0-23.34,0Z" style="fill:#263238"></path><path d="M239,218.44v-8.63h1.58v7.54h2.09v1.09Z" style="fill:#263238"></path><path d="M245.77,218.56a2.83,2.83,0,0,1-1.47-.34,1.89,1.89,0,0,1-.77-1,4.33,4.33,0,0,1-.24-1.52v-3.23a4.21,4.21,0,0,1,.24-1.5,1.82,1.82,0,0,1,.77-1,3.44,3.44,0,0,1,2.94,0,1.88,1.88,0,0,1,.78,1,4.21,4.21,0,0,1,.24,1.5v3.24a4.21,4.21,0,0,1-.24,1.5,2,2,0,0,1-.78,1A2.71,2.71,0,0,1,245.77,218.56Zm0-1.16a.87.87,0,0,0,.58-.17,1,1,0,0,0,.25-.47,3.34,3.34,0,0,0,.06-.65v-4a3.2,3.2,0,0,0-.06-.65.9.9,0,0,0-.25-.45.87.87,0,0,0-.58-.17.86.86,0,0,0-.57.17.84.84,0,0,0-.26.45,3.2,3.2,0,0,0-.06.65v4a3.34,3.34,0,0,0,.06.65.83.83,0,0,0,.25.47A.87.87,0,0,0,245.77,217.4Z" style="fill:#263238"></path><path d="M251.59,218.56a2.31,2.31,0,0,1-1.36-.36,2.1,2.1,0,0,1-.72-1,5.29,5.29,0,0,1-.22-1.58V212.7a5,5,0,0,1,.22-1.6,1.85,1.85,0,0,1,.75-1,2.65,2.65,0,0,1,1.49-.36,2.82,2.82,0,0,1,1.4.3,1.66,1.66,0,0,1,.75.86,3.42,3.42,0,0,1,.23,1.36v.44h-1.5v-.49a3.69,3.69,0,0,0-.06-.71.8.8,0,0,0-.23-.45,1.06,1.06,0,0,0-1.18,0,1,1,0,0,0-.23.54,5.31,5.31,0,0,0-.05.72v3.62a3.5,3.5,0,0,0,.08.77,1,1,0,0,0,.27.51.86.86,0,0,0,.58.18.83.83,0,0,0,.59-.2,1.07,1.07,0,0,0,.28-.53,3.83,3.83,0,0,0,.08-.81v-.81h-.93v-1h2.35v4.38h-1l-.11-.85a1.81,1.81,0,0,1-.52.7A1.5,1.5,0,0,1,251.59,218.56Z" style="fill:#263238"></path><path d="M255.42,218.44v-8.63H257v8.63Z" style="fill:#263238"></path><path d="M258.31,218.44v-8.63h1.1l2.1,4.92v-4.92h1.3v8.63h-1l-2.12-5.16v5.16Z" style="fill:#263238"></path><path d="M232.35,252.11a2.34,2.34,0,0,1-1.43-.38,1.78,1.78,0,0,1-.69-1,6.13,6.13,0,0,1-.18-1.58v-5.72h1.15v5.77a6.4,6.4,0,0,0,.08,1,1.41,1.41,0,0,0,.32.72,1,1,0,0,0,.75.27,1,1,0,0,0,.76-.27,1.41,1.41,0,0,0,.32-.72,6.4,6.4,0,0,0,.08-1v-5.77h1.14v5.72a6.13,6.13,0,0,1-.18,1.58,1.86,1.86,0,0,1-.68,1A2.35,2.35,0,0,1,232.35,252.11Z" style="fill:#ccc"></path><path d="M238,252.11a2.26,2.26,0,0,1-1.24-.32,2,2,0,0,1-.75-.89,3.66,3.66,0,0,1-.3-1.31l1.07-.29a4.35,4.35,0,0,0,.14.89,1.57,1.57,0,0,0,.37.7,1.08,1.08,0,0,0,1.42,0,1.09,1.09,0,0,0,.24-.75,1.53,1.53,0,0,0-.27-1,4.41,4.41,0,0,0-.67-.72l-1.45-1.28a2.62,2.62,0,0,1-.63-.81,2.72,2.72,0,0,1-.2-1.09,2,2,0,0,1,.54-1.48,2.11,2.11,0,0,1,1.49-.52,2.74,2.74,0,0,1,.9.14,1.48,1.48,0,0,1,.65.41,2,2,0,0,1,.41.69,3.83,3.83,0,0,1,.21,1l-1,.28a4.49,4.49,0,0,0-.13-.79,1.14,1.14,0,0,0-.34-.57,1.15,1.15,0,0,0-1.38,0,.93.93,0,0,0-.25.71,1.39,1.39,0,0,0,.13.65,1.94,1.94,0,0,0,.43.52l1.46,1.28a4.34,4.34,0,0,1,.87,1,2.63,2.63,0,0,1,.37,1.4,2.14,2.14,0,0,1-.27,1.1,1.72,1.72,0,0,1-.73.71A2.17,2.17,0,0,1,238,252.11Z" style="fill:#ccc"></path><path d="M241,252v-8.63h3.34v.89h-2.14v2.86h1.74V248h-1.74v3.17h2.17V252Z" style="fill:#ccc"></path><path d="M245.3,252v-8.63H247a3.69,3.69,0,0,1,1.43.23,1.55,1.55,0,0,1,.84.73,2.83,2.83,0,0,1,.27,1.33,3.66,3.66,0,0,1-.11.91,1.72,1.72,0,0,1-.34.69,1.24,1.24,0,0,1-.62.41l1.23,4.33h-1.16l-1.13-4h-.94v4Zm1.2-4.91H247a2.37,2.37,0,0,0,.83-.13.88.88,0,0,0,.47-.44,2,2,0,0,0,.15-.86,1.66,1.66,0,0,0-.28-1.09,1.36,1.36,0,0,0-1.1-.34h-.53Z" style="fill:#ccc"></path><path d="M250.83,252v-8.63h.82l2.45,5.73v-5.73h1V252h-.76l-2.49-5.89V252Z" style="fill:#ccc"></path><path d="M256,252l1.83-8.63H259l1.85,8.63h-1.14l-.4-2.17h-1.76l-.41,2.17Zm1.7-3h1.44l-.72-3.89Z" style="fill:#ccc"></path><path d="M261.68,252l.16-8.63H263l1.53,7,1.53-7h1.17l.16,8.63h-1l-.09-6.27L264.89,252h-.68l-1.45-6.27-.1,6.27Z" style="fill:#ccc"></path><path d="M268.74,252v-8.63h3.34v.89h-2.14v2.86h1.74V248h-1.74v3.17h2.17V252Z" style="fill:#ccc"></path><path d="M229.29,287.73V279.1h2.14a2.32,2.32,0,0,1,1.24.28,1.62,1.62,0,0,1,.68.82,3.48,3.48,0,0,1,.21,1.29,2.7,2.7,0,0,1-.24,1.18,1.74,1.74,0,0,1-.7.77,2.37,2.37,0,0,1-1.18.27h-.95v4Zm1.2-4.88h.56a2.25,2.25,0,0,0,.82-.12.72.72,0,0,0,.43-.41,2.22,2.22,0,0,0,.12-.82,3.84,3.84,0,0,0-.09-.95.66.66,0,0,0-.38-.46,2.42,2.42,0,0,0-.89-.13h-.57Z" style="fill:#ccc"></path><path d="M233.53,287.73l1.84-8.63h1.16l1.84,8.63h-1.14l-.39-2.17h-1.76l-.42,2.17Zm1.71-3h1.44l-.73-3.89Z" style="fill:#ccc"></path><path d="M241.28,287.83a2.26,2.26,0,0,1-1.24-.32,2,2,0,0,1-.75-.88,3.77,3.77,0,0,1-.3-1.32l1.07-.28a5,5,0,0,0,.14.88,1.68,1.68,0,0,0,.37.7.93.93,0,0,0,.71.27.92.92,0,0,0,.71-.26,1.07,1.07,0,0,0,.24-.75,1.55,1.55,0,0,0-.27-.95,5.4,5.4,0,0,0-.67-.72l-1.45-1.27a2.54,2.54,0,0,1-.63-.82A2.69,2.69,0,0,1,239,281a1.92,1.92,0,0,1,.55-1.47A2,2,0,0,1,241,279a2.74,2.74,0,0,1,.9.14,1.57,1.57,0,0,1,.65.41,2,2,0,0,1,.41.7,3.46,3.46,0,0,1,.21,1l-1,.28a4.37,4.37,0,0,0-.13-.78,1.17,1.17,0,0,0-.34-.58,1.15,1.15,0,0,0-1.38,0,.93.93,0,0,0-.25.71,1.39,1.39,0,0,0,.13.65,1.8,1.8,0,0,0,.43.52l1.46,1.28a4.79,4.79,0,0,1,.87,1,2.57,2.57,0,0,1,.37,1.4,2.17,2.17,0,0,1-.27,1.11,1.76,1.76,0,0,1-.73.7A2.17,2.17,0,0,1,241.28,287.83Z" style="fill:#ccc"></path><path d="M246.32,287.83a2.28,2.28,0,0,1-1.24-.32,2,2,0,0,1-.75-.88,3.77,3.77,0,0,1-.3-1.32l1.07-.28a5,5,0,0,0,.14.88,1.68,1.68,0,0,0,.37.7.93.93,0,0,0,.71.27.92.92,0,0,0,.71-.26,1.07,1.07,0,0,0,.24-.75,1.62,1.62,0,0,0-.26-.95,7.16,7.16,0,0,0-.67-.72l-1.45-1.27a2.29,2.29,0,0,1-.63-.82,2.52,2.52,0,0,1-.21-1.09,1.92,1.92,0,0,1,.55-1.47,2,2,0,0,1,1.48-.53,2.74,2.74,0,0,1,.9.14,1.51,1.51,0,0,1,.65.41,2.17,2.17,0,0,1,.42.7,3.86,3.86,0,0,1,.2,1l-1,.28a3.63,3.63,0,0,0-.13-.78,1.15,1.15,0,0,0-.33-.58,1,1,0,0,0-.69-.22,1,1,0,0,0-.7.24.93.93,0,0,0-.25.71,1.39,1.39,0,0,0,.13.65,1.85,1.85,0,0,0,.44.52l1.46,1.28a5,5,0,0,1,.86,1,2.57,2.57,0,0,1,.37,1.4,2.28,2.28,0,0,1-.26,1.11,1.89,1.89,0,0,1-.73.7A2.21,2.21,0,0,1,246.32,287.83Z" style="fill:#ccc"></path><path d="M250.45,287.73,249,279.1h1l.93,6.2,1.16-6.17H253l1.17,6.21.91-6.24h1l-1.39,8.63h-.87l-1.21-6.39-1.21,6.39Z" style="fill:#ccc"></path><path d="M259.22,287.83a2.47,2.47,0,0,1-1.39-.34,1.86,1.86,0,0,1-.75-1,4.43,4.43,0,0,1-.22-1.48v-3.28a4,4,0,0,1,.23-1.46,1.84,1.84,0,0,1,.74-.94,2.58,2.58,0,0,1,1.39-.33,2.62,2.62,0,0,1,1.39.33,1.88,1.88,0,0,1,.74.94,4.22,4.22,0,0,1,.23,1.46V285a4.36,4.36,0,0,1-.23,1.47,1.91,1.91,0,0,1-.74,1A2.44,2.44,0,0,1,259.22,287.83Zm0-.95a1.11,1.11,0,0,0,.73-.2,1,1,0,0,0,.33-.55,4.13,4.13,0,0,0,.08-.84v-3.78a4,4,0,0,0-.08-.83.93.93,0,0,0-.33-.53,1.5,1.5,0,0,0-1.46,0,.88.88,0,0,0-.33.53,3.34,3.34,0,0,0-.09.83v3.78a3.49,3.49,0,0,0,.09.84.94.94,0,0,0,.33.55A1.11,1.11,0,0,0,259.22,286.88Z" style="fill:#ccc"></path><path d="M262.76,287.73V279.1h1.74a3.89,3.89,0,0,1,1.43.23,1.67,1.67,0,0,1,.84.73,2.83,2.83,0,0,1,.27,1.33,3.6,3.6,0,0,1-.11.91,1.7,1.7,0,0,1-.34.7,1.44,1.44,0,0,1-.62.41l1.23,4.32H266l-1.13-4.05H264v4.05Zm1.21-4.91h.45a2.21,2.21,0,0,0,.84-.13.84.84,0,0,0,.47-.44,2,2,0,0,0,.14-.86,1.74,1.74,0,0,0-.27-1.09,1.38,1.38,0,0,0-1.1-.34H264Z" style="fill:#ccc"></path><path d="M268.29,287.73V279.1h1.88a3.37,3.37,0,0,1,1.52.29,1.72,1.72,0,0,1,.8.88,3.88,3.88,0,0,1,.24,1.46v3.18a4.29,4.29,0,0,1-.24,1.54,1.86,1.86,0,0,1-.78,1,2.74,2.74,0,0,1-1.44.32Zm1.21-.86h.68a1.39,1.39,0,0,0,.94-.26,1.14,1.14,0,0,0,.33-.74,10,10,0,0,0,.06-1.19v-2.8a5.45,5.45,0,0,0-.08-1.09.88.88,0,0,0-.38-.6,1.62,1.62,0,0,0-.9-.2h-.65Z" style="fill:#ccc"></path><path d="M238.15,324a2.58,2.58,0,0,1-1.3-.3,1.91,1.91,0,0,1-.79-.89,3.75,3.75,0,0,1-.3-1.44l1.35-.27a4.41,4.41,0,0,0,.13.89,1.19,1.19,0,0,0,.31.59.72.72,0,0,0,.55.21.63.63,0,0,0,.54-.23,1,1,0,0,0,.16-.58,1.57,1.57,0,0,0-.26-.93,4.09,4.09,0,0,0-.68-.72l-1.09-1a3.53,3.53,0,0,1-.73-.88,2.47,2.47,0,0,1-.27-1.2,2.05,2.05,0,0,1,.6-1.58,2.3,2.3,0,0,1,1.63-.55,2.5,2.5,0,0,1,1,.18,1.69,1.69,0,0,1,.65.52,2.15,2.15,0,0,1,.35.75,4.24,4.24,0,0,1,.15.89l-1.34.24a3.83,3.83,0,0,0-.09-.73,1,1,0,0,0-.25-.5.67.67,0,0,0-.51-.18.65.65,0,0,0-.54.23.84.84,0,0,0-.19.57,1.33,1.33,0,0,0,.18.72,2.76,2.76,0,0,0,.53.58l1.07.95a4.36,4.36,0,0,1,.91,1.05,2.59,2.59,0,0,1,.38,1.45A2.21,2.21,0,0,1,240,323a1.89,1.89,0,0,1-.76.75A2.28,2.28,0,0,1,238.15,324Z" style="fill:#e5e5e5"></path><path d="M241.2,323.89v-8.64h1.55v8.64Z" style="fill:#e5e5e5"></path><path d="M246.25,324a2.25,2.25,0,0,1-1.35-.36,1.9,1.9,0,0,1-.72-1A4.88,4.88,0,0,1,244,321v-2.9a5.4,5.4,0,0,1,.21-1.6,1.85,1.85,0,0,1,.75-1,2.76,2.76,0,0,1,1.49-.35,3,3,0,0,1,1.41.29,1.75,1.75,0,0,1,.75.86,3.68,3.68,0,0,1,.23,1.36v.45h-1.51v-.49a4.63,4.63,0,0,0,0-.71.82.82,0,0,0-.24-.46.88.88,0,0,0-.57-.15.75.75,0,0,0-.6.2,1,1,0,0,0-.24.53,5.54,5.54,0,0,0,0,.73v3.61a3.58,3.58,0,0,0,.07.78.91.91,0,0,0,.28.51.86.86,0,0,0,.57.17.82.82,0,0,0,.59-.19,1,1,0,0,0,.28-.53,3.27,3.27,0,0,0,.08-.81v-.81h-.93v-1h2.35v4.38h-1l-.12-.86a1.6,1.6,0,0,1-.52.7A1.48,1.48,0,0,1,246.25,324Z" style="fill:#e5e5e5"></path><path d="M250,323.89v-8.64h1.1l2.1,4.93v-4.93h1.3v8.64h-1l-2.11-5.16v5.16Z" style="fill:#e5e5e5"></path><path d="M258.49,323.89v-8.64H260v8.64Z" style="fill:#e5e5e5"></path><path d="M261.38,323.89v-8.64h1.09l2.1,4.93v-4.93h1.3v8.64h-1l-2.11-5.16v5.16Z" style="fill:#e5e5e5"></path></g></svg>