<svg xmlns="http://www.w3.org/2000/svg" viewBox="0 0 500 500"><g id="freepik--background-complete--inject-37"><rect x="402.07" y="341.8" width="35.16" height="11.19" transform="translate(839.3 694.78) rotate(180)" style="fill:#ebebeb"></rect><rect x="421.68" y="148.8" width="35.16" height="11.19" transform="translate(878.52 308.79) rotate(180)" style="fill:#ebebeb"></rect><path d="M421.68,367.1l17.7-.3,8.75-.12,8.71,0-.46.46,0-11.19.5.5-17.58-.07-8.79-.09-8.79-.11.24-.23Zm0,0-.23-11.19v-.24h.24l8.79-.11,8.79-.08,17.58-.07h.5v.5l0,11.19v.45h-.45l-8.87,0-8.83-.12Z" style="fill:#ebebeb"></path><path d="M129.85,339.15l17.7-.29,8.75-.12,8.71-.05-.46.46,0-11.19.5.5-17.58-.07-8.79-.08-8.79-.11.24-.24Zm0,0L129.61,328v-.24h.24l8.79-.11,8.79-.08,17.58-.07h.5v.5l0,11.19v.46H165l-8.87,0-8.83-.12Z" style="fill:#ebebeb"></path><path d="M149.46,353.26l17.7-.29,8.75-.12,8.71-.05-.46.46,0-11.19.5.5L167,342.5l-8.79-.08-8.79-.11.24-.24Zm0,0-.23-11.19v-.24h.24l8.79-.11,8.79-.08,17.58-.07h.5v.5l0,11.19v.46h-.45l-8.87,0-8.83-.12Z" style="fill:#ebebeb"></path><rect x="169" y="327.96" width="35.16" height="11.19" transform="translate(373.15 667.11) rotate(180)" style="fill:#ebebeb"></rect><rect x="43.16" y="355.91" width="35.16" height="11.19" transform="translate(121.48 723) rotate(180)" style="fill:#ebebeb"></rect><rect x="62.77" y="44.93" width="35.16" height="11.19" transform="translate(160.7 101.06) rotate(180)" style="fill:#ebebeb"></rect><path d="M43.16,70.23l17.7-.29,8.75-.12,8.71,0-.46.45,0-11.19.5.5-17.58-.07L52,59.39l-8.79-.11L43.4,59Zm0,0L42.92,59v-.23h.24L52,58.7l8.79-.09,17.58-.07h.5V59l0,11.19v.46h-.45l-8.87,0-8.83-.12Z" style="fill:#ebebeb"></path><path d="M402.07,56.12l17.7-.29,8.75-.12,8.71,0-.46.45,0-11.19.5.5-17.58-.07-8.79-.08-8.79-.11.24-.24Zm0,0-.24-11.19V44.7h.24l8.79-.11,8.79-.09,17.58-.07h.5v.5l-.05,11.19v.46h-.45l-8.87,0-8.83-.12Z" style="fill:#ebebeb"></path><circle cx="416.93" cy="81.48" r="43.09" transform="translate(-5.86 122.91) rotate(-16.66)" style="fill:#ebebeb"></circle><circle cx="418.9" cy="82.44" r="41.11" transform="translate(146.97 411.57) rotate(-61.57)" style="fill:#dbdbdb"></circle><circle cx="418.9" cy="82.44" r="38.52" transform="translate(-4.7 135.72) rotate(-18.3)" style="fill:#fff"></circle><path d="M456.55,74.26c-17.54,10.63-46.37,28.06-62.48,37.62a38.5,38.5,0,0,1-10.52-14.15l53.28-49.39A38.59,38.59,0,0,1,456.55,74.26Z" style="fill:#ebebeb;opacity:0.5"></path><path d="M457.39,83.78a38,38,0,0,1-2.54,12.52l-48,22.72a38,38,0,0,1-6.07-2.61C415.25,108,441.77,92.77,457.39,83.78Z" style="fill:#ebebeb;opacity:0.5"></path><rect x="418.53" y="46.72" width="0.74" height="5.84" style="fill:#c7c7c7"></rect><rect x="402.13" y="51.11" width="0.75" height="5.84" transform="translate(26.9 208.47) rotate(-30)" style="fill:#c7c7c7"></rect><rect x="390.13" y="63.12" width="0.74" height="5.84" transform="translate(138.04 371.18) rotate(-60)" style="fill:#c7c7c7"></rect><rect x="383.18" y="82.06" width="5.84" height="0.74" style="fill:#c7c7c7"></rect><rect x="387.58" y="98.47" width="5.84" height="0.74" transform="matrix(0.87, -0.5, 0.5, 0.87, 2.91, 208.54)" style="fill:#c7c7c7"></rect><rect x="399.59" y="110.47" width="5.84" height="0.74" transform="translate(105.47 404.22) rotate(-60.04)" style="fill:#c7c7c7"></rect><rect x="418.53" y="112.32" width="0.74" height="5.84" style="fill:#c7c7c7"></rect><rect x="434.93" y="107.92" width="0.74" height="5.84" transform="translate(2.9 232.5) rotate(-30)" style="fill:#c7c7c7"></rect><rect x="446.94" y="95.92" width="0.74" height="5.84" transform="translate(138.03 436.77) rotate(-59.99)" style="fill:#c7c7c7"></rect><rect x="448.79" y="82.06" width="5.84" height="0.74" style="fill:#c7c7c7"></rect><rect x="444.39" y="65.66" width="5.84" height="0.74" transform="translate(26.95 232.61) rotate(-30.01)" style="fill:#c7c7c7"></rect><rect x="432.39" y="53.66" width="5.84" height="0.74" transform="translate(171.03 404.13) rotate(-60.03)" style="fill:#c7c7c7"></rect><polygon points="419.46 49.36 420.73 85.04 417.08 84.99 418.47 49.35 419.46 49.36" style="fill:#c7c7c7"></polygon><polygon points="441.69 70 417.68 85.31 415.94 82.11 441.21 69.12 441.69 70" style="fill:#a6a6a6"></polygon><path d="M420.15,82.44a1.25,1.25,0,1,1-1.25-1.25A1.24,1.24,0,0,1,420.15,82.44Z" style="fill:#c7c7c7"></path></g><g id="freepik--Table--inject-37"><polygon points="36.71 462.77 90.03 462.52 143.35 462.44 250 462.27 356.64 462.43 409.97 462.52 463.29 462.77 409.97 463.01 356.64 463.1 250 463.27 143.35 463.1 90.03 463.01 36.71 462.77" style="fill:#263238"></polygon></g><g id="freepik--Plant--inject-37"><path d="M71,335.65s.92,0,2,4c.57,2.19-2.79,20.76-2.46,40.48.25,14.8,1,31,2.11,40.25,0,0,1.08,2.17,4.63,1.51a230.87,230.87,0,0,1-4.63-42.29c-.15-13.87,2.66-29.71,2.58-40.5a9.38,9.38,0,0,1,.91-3.76Z" style="fill:#455a64"></path><path d="M74.28,330.51s-4.15-3.09-4-7.81,1.8-8.38,4.11-10.61S77.51,310,77.51,310s2.59-.34,4.16,5.09,3.12,10,1.25,12.8C79.33,333.16,74.28,330.51,74.28,330.51Z" style="fill:#398AB7"></path><path d="M74.28,330.51s-4.15-3.09-4-7.81,1.8-8.38,4.11-10.61S77.51,310,77.51,310s2.59-.34,4.16,5.09,3.12,10,1.25,12.8C79.33,333.16,74.28,330.51,74.28,330.51Z" style="opacity:0.30000000000000004"></path><path d="M67.37,323.45s-1.78-4.6-.18-8.09,2.79-3.5,3.14-3.59,2.62.57,3.46,3.92.82,5.72.28,7.11-2.74,2.42-2.74,2.42A4.46,4.46,0,0,1,67.37,323.45Z" style="fill:#398AB7"></path><path d="M67.37,323.45s-1.78-4.6-.18-8.09,2.79-3.5,3.14-3.59,2.62.57,3.46,3.92.82,5.72.28,7.11-2.74,2.42-2.74,2.42A4.46,4.46,0,0,1,67.37,323.45Z" style="opacity:0.2"></path><path d="M67.57,313.91s-1.88.49-2.43,3.71a21.83,21.83,0,0,0,.35,7.67c.2.69.74,7.3,4.19,9.93s4.12,1,4.12,1a7.11,7.11,0,0,0,3-5.56,25.83,25.83,0,0,0-1-9.9c-.94-2.83-1.31-4.42-3.24-5.44S68.25,313.55,67.57,313.91Z" style="fill:#398AB7"></path><path d="M67.57,313.91s-1.88.49-2.43,3.71a21.83,21.83,0,0,0,.35,7.67c.2.69.74,7.3,4.19,9.93s4.12,1,4.12,1a7.11,7.11,0,0,0,3-5.56,25.83,25.83,0,0,0-1-9.9c-.94-2.83-1.31-4.42-3.24-5.44S68.25,313.55,67.57,313.91Z" style="opacity:0.1"></path><path d="M76.28,337s-4.16.66-5.36-5.3.22-7.92.5-8.76-.07-1.77.59-2.79,1.08-.8,1.91-2.17,1.09-3.39,1.77-4a2.8,2.8,0,0,1,2.27-.82,23.4,23.4,0,0,1,3.54,1.47c1,.38.71,2.29,1.37,3.11s2.58,3.19,1.78,7.73-1.36,7.58-3.37,9.29S77.65,337,76.28,337Z" style="fill:#398AB7"></path><path d="M70.39,336.7c-.72.11-2.45.17-4.55-2.39-2.57-3.13-2.31-7.62-2.48-8.77A40.79,40.79,0,0,0,62.27,319c-.63-1.71-.47-2.69-.28-2.81s1.75.46,2.58,2.48,2.6,3.89,2.89,6.86.15,7.23,1.79,9,3.43,1.33,3,2.15A15.54,15.54,0,0,1,70.39,336.7Z" style="fill:#398AB7"></path><path d="M71.82,383.8s-2.48-8,5.26-22.61,14.76-19,14.76-19-.07,8.13-6.87,21.63S72.86,383.2,71.82,383.8Z" style="fill:#455a64"></path><path d="M88.05,348.45c.23-.42.32,0,.1.4-2.75,5.18-12.24,20.8-15.3,31.57-.13.45-.5,0-.35-.46C78.5,361.8,85.26,353.72,88.05,348.45Z" style="fill:#37474f"></path><path d="M91.3,370.58s.52-10.19-2.27-12.77-3.39-1.91-4.21-2.11a7.73,7.73,0,0,0-2.88.55s4.22.95,5.18,3.82Z" style="fill:#398AB7"></path><path d="M91.3,370.58s.52-10.19-2.27-12.77-3.39-1.91-4.21-2.11a7.73,7.73,0,0,0-2.88.55s4.22.95,5.18,3.82Z" style="opacity:0.2"></path><path d="M95.75,373.68a6.69,6.69,0,0,1,.9,4.63c-2.27,22-7.87,33.7-17.05,48,0,0-1.81,4.62.45,3.58,0,0,14.48-15.3,18.25-50.53,0,0,.17-4,2.78-5.7C101.08,373.67,96.18,372.5,95.75,373.68Z" style="fill:#455a64"></path><path d="M95,351.72a2.45,2.45,0,0,1,2.56,2.14c.54,2.36,4.81,15.16,3,18.84S98,374.8,96.38,375c-1.77.26-5.6-2.31-6.25-4.4s-1.77-6.38-1.43-8.83S88.35,351.8,95,351.72Z" style="fill:#398AB7"></path><path d="M95,351.72a2.45,2.45,0,0,1,2.56,2.14c.54,2.36,4.81,15.16,3,18.84S98,374.8,96.38,375c-1.77.26-5.6-2.31-6.25-4.4s-1.77-6.38-1.43-8.83S88.35,351.8,95,351.72Z" style="opacity:0.1"></path><path d="M106.17,350.47s2.11,1.78,2.19,3.8,1.15,11-1.17,15.41-4.26,5.63-7.51,5.61,2.47-22.6,2.47-22.6S105,349.21,106.17,350.47Z" style="fill:#398AB7"></path><path d="M106.17,350.47s2.11,1.78,2.19,3.8,1.15,11-1.17,15.41-4.26,5.63-7.51,5.61,2.47-22.6,2.47-22.6S105,349.21,106.17,350.47Z" style="opacity:0.2"></path><path d="M101.6,351.75s3.19.15,4.36,2.52a19.23,19.23,0,0,1,1.69,10.16c-.54,3.43-1.27,11.83-8.63,10.83-5.56-.76-6.78-8.26-6.51-14.46.19-4.55,3-5.25,4.58-6.88A7,7,0,0,1,101.6,351.75Z" style="fill:#398AB7"></path><path d="M98.94,375.18s-6.13.88-8.82-2.85-1.79-6.38-2.24-9a17.16,17.16,0,0,0-1.45-4.57s1.68.81,3,5.85S95,374.72,98.94,375.18Z" style="fill:#398AB7"></path><path d="M80.12,429.21s2.66-11.29,14-21.94c10.81-10.2,17.61-10.51,19.55-11.52l.23-.14c1.57-1.13-7.18,11-14.77,17.88S85.34,426.81,80.12,429.21Z" style="fill:#455a64"></path><path d="M105.54,402.35C96,408.47,89.17,416.2,83.29,424.84c-.27.4-.55,1.22-.28.83a100.44,100.44,0,0,1,22.3-22.83C105.69,402.55,105.94,402.1,105.54,402.35Z" style="fill:#37474f"></path><path d="M57.81,355.54s4.87-1.73,6.12-6.29.74-8.54-.81-11.36-2.35-2.95-2.35-2.95-2.37-1.09-5.47,3.64-5.93,8.65-5,11.86C52.2,356.58,57.81,355.54,57.81,355.54Z" style="fill:#398AB7"></path><path d="M57.81,355.54s4.87-1.73,6.12-6.29.74-8.54-.81-11.36-2.35-2.95-2.35-2.95-2.37-1.09-5.47,3.64-5.93,8.65-5,11.86C52.2,356.58,57.81,355.54,57.81,355.54Z" style="opacity:0.30000000000000004"></path><path d="M59.53,360.31s-.92,0-2,4c-1,3.84-5.43,30.78,4.83,53.35,0,0,.94,3.86-2.61,3.21,0,0-10.93-26.28-4.45-57.11a5.62,5.62,0,0,0-.91-3.76Z" style="fill:#455a64"></path><path d="M66.49,350.83S69.55,347,69,343.15s-1.64-4.17-2-4.36-2.67-.23-4.46,2.73-2.46,5.23-2.36,6.71,1.91,3.12,1.91,3.12A4.5,4.5,0,0,0,66.49,350.83Z" style="fill:#398AB7"></path><path d="M66.49,350.83S69.55,347,69,343.15s-1.64-4.17-2-4.36-2.67-.23-4.46,2.73-2.46,5.23-2.36,6.71,1.91,3.12,1.91,3.12A4.5,4.5,0,0,0,66.49,350.83Z" style="opacity:0.2"></path><path d="M69.11,341.65s1.65,1,1.23,4.26a21.82,21.82,0,0,1-2.6,7.22c-.38.61-2.85,6.76-6.93,8.26s-4.22-.26-4.22-.26a7.12,7.12,0,0,1-1.27-6.21,25.67,25.67,0,0,1,3.88-9.17c1.73-2.43,2.56-3.84,4.7-4.24S68.57,341.1,69.11,341.65Z" style="fill:#398AB7"></path><path d="M69.11,341.65s1.65,1,1.23,4.26a21.82,21.82,0,0,1-2.6,7.22c-.38.61-2.85,6.76-6.93,8.26s-4.22-.26-4.22-.26a7.12,7.12,0,0,1-1.27-6.21,25.67,25.67,0,0,1,3.88-9.17c1.73-2.43,2.56-3.84,4.7-4.24S68.57,341.1,69.11,341.65Z" style="opacity:0.1"></path><path d="M54,361.14s3.78,1.86,6.68-3.49,2.12-7.63,2.11-8.52.58-1.66.26-2.84-.81-1.08-1.2-2.63,0-3.57-.52-4.31a2.79,2.79,0,0,0-1.93-1.46,21.88,21.88,0,0,0-3.81.37c-1.08.06-1.35,2-2.23,2.57s-3.41,2.29-4,6.85-.93,7.65.49,9.88S52.67,360.76,54,361.14Z" style="fill:#398AB7"></path><path d="M59.71,362.59c.65.32,2.28.89,5.05-.94,3.38-2.23,4.45-6.6,4.94-7.65a42,42,0,0,1,3-6c1.1-1.45,1.23-2.43,1.09-2.6s-1.81-.08-3.19,1.62S67,350,65.8,352.74s-2.27,6.87-4.36,8.08-3.66.26-3.5,1.17A14,14,0,0,0,59.71,362.59Z" style="fill:#398AB7"></path><path d="M56.74,406.2s2.48-8-5.27-22.61-14.76-19-14.76-19,.08,8.13,6.88,21.63S55.7,405.6,56.74,406.2Z" style="fill:#455a64"></path><path d="M40.5,370.84c-.22-.41-.31,0-.09.41,2.74,5.18,12.23,20.79,15.29,31.57.13.45.5,0,.36-.46C50.05,384.2,43.29,376.11,40.5,370.84Z" style="fill:#37474f"></path><polygon points="42.59 462.77 112.81 462.77 109.71 429.31 109.03 421.93 46.37 421.93 45.69 429.31 42.59 462.77" style="fill:#398AB7"></polygon><polygon points="45.9 426.95 109.71 429.31 109.03 421.93 46.37 421.93 45.9 426.95" style="opacity:0.1"></polygon><rect x="42.35" y="415.66" width="70.69" height="8.89" transform="translate(155.39 840.2) rotate(180)" style="fill:#398AB7"></rect></g><g id="freepik--Window--inject-37"><rect x="84.06" y="55.48" width="331.88" height="242.94" style="fill:#fff"></rect><path d="M415.94,298.43l-331.88.15h-.15v-.15l-.1-242.95v-.25h.25l331.88.15h.11v.1Zm0,0-.11-242.95.11.11-331.88.14.25-.25-.1,243-.15-.16Z" style="fill:#263238"></path><rect x="84.06" y="55.48" width="331.88" height="9.35" style="fill:#263238"></rect><path d="M93.08,60.16a1.89,1.89,0,1,1-1.89-1.89A1.89,1.89,0,0,1,93.08,60.16Z" style="fill:#398AB7"></path><path d="M100.77,60.16a1.89,1.89,0,1,1-1.89-1.89A1.89,1.89,0,0,1,100.77,60.16Z" style="fill:#fff"></path><path d="M108.46,60.16a1.89,1.89,0,1,1-1.89-1.89A1.89,1.89,0,0,1,108.46,60.16Z" style="fill:#455a64"></path><path d="M129.2,115a1.43,1.43,0,0,1-.9,1.8,2,2,0,0,1-.56.08h0a1.8,1.8,0,0,1-1-.29,2.43,2.43,0,0,1-.82-.89,6.91,6.91,0,0,1-.54-3.08,2.18,2.18,0,0,0-.31-1.1,2.31,2.31,0,0,0-.77-.75,4.77,4.77,0,0,0-1.43-.61h-3v5.56a1.43,1.43,0,0,1-1.44,1.41,1.41,1.41,0,0,1-1.41-1.41V100.61a1.39,1.39,0,0,1,1.41-1.41H123a5.48,5.48,0,0,1,3.48,9.72,3.9,3.9,0,0,1,.9,1,4.87,4.87,0,0,1,.85,2.77,6.28,6.28,0,0,0,.1,1.51A1.41,1.41,0,0,1,129.2,115Zm-3.59-10.31a2.64,2.64,0,0,0-2.64-2.66h-3.16v5.28H123A2.63,2.63,0,0,0,125.61,104.71Z" style="fill:#263238"></path><path d="M133.35,115.74V100.61a1.39,1.39,0,0,1,1.41-1.41h8.39a1.42,1.42,0,0,1,1.41,1.41,1.45,1.45,0,0,1-1.41,1.44h-7v4.69h6a1.43,1.43,0,0,1,0,2.85h-6v4.72h7a1.42,1.42,0,0,1,0,2.84h-8.31c-.05,0-.05,0-.05,0l0,0A1.41,1.41,0,0,1,133.35,115.74Z" style="fill:#263238"></path><path d="M148,112.69a1.34,1.34,0,0,1,1.87-.18,8.44,8.44,0,0,0,4.9,2,5.55,5.55,0,0,0,3.2-.95,2.33,2.33,0,0,0,1.11-1.85,1.51,1.51,0,0,0-.23-.82,2.54,2.54,0,0,0-.77-.77,10.41,10.41,0,0,0-3.52-1.21h-.05a14.08,14.08,0,0,1-3.31-1,5.48,5.48,0,0,1-2.38-2,3.87,3.87,0,0,1-.59-2.1,4.76,4.76,0,0,1,2.05-3.75,7.6,7.6,0,0,1,4.44-1.35,10,10,0,0,1,5.59,2,1.32,1.32,0,0,1,.36,1.82,1.3,1.3,0,0,1-1.82.38,7.47,7.47,0,0,0-4.13-1.64,5,5,0,0,0-2.88.87,2.05,2.05,0,0,0-1,1.62,1.24,1.24,0,0,0,.18.72,2.59,2.59,0,0,0,.69.66A8.58,8.58,0,0,0,155,106.3H155a15.17,15.17,0,0,1,3.54,1.08,6,6,0,0,1,2.56,2.13,4.09,4.09,0,0,1,.62,2.18,4.94,4.94,0,0,1-2.21,4,8,8,0,0,1-4.74,1.47,11.06,11.06,0,0,1-6.57-2.57A1.36,1.36,0,0,1,148,112.69Z" style="fill:#263238"></path><path d="M165.67,115.74V100.61a1.38,1.38,0,0,1,1.41-1.41h8.39a1.42,1.42,0,0,1,1.41,1.41,1.45,1.45,0,0,1-1.41,1.44h-6.95v4.69h6a1.43,1.43,0,0,1,0,2.85h-6v4.72h6.95a1.42,1.42,0,0,1,0,2.84h-8.31c-.06,0-.06,0-.06,0l0,0A1.4,1.4,0,0,1,165.67,115.74Z" style="fill:#263238"></path><path d="M191.86,102.05h-4.08v13.69a1.41,1.41,0,0,1-2.82,0V102.05H180.9a1.43,1.43,0,0,1-1.41-1.44,1.39,1.39,0,0,1,1.41-1.41h11a1.4,1.4,0,0,1,1.41,1.41A1.45,1.45,0,0,1,191.86,102.05Z" style="fill:#263238"></path><path d="M123.32,136.89h-3.15v5.57a1.43,1.43,0,0,1-2.85,0V127.32a1.41,1.41,0,0,1,1.41-1.41h4.59a5.49,5.49,0,1,1,0,11ZM120.17,134h3.15a2.64,2.64,0,1,0,0-5.28h-3.15Z" style="fill:#263238"></path><path d="M139.64,139.64H133.4L132.15,143a1.43,1.43,0,0,1-2.67-1l5.67-15.1a1.42,1.42,0,0,1,1.36-.9,1.4,1.4,0,0,1,1.36.9l5.67,15.1a1.47,1.47,0,0,1-.85,1.85,1.44,1.44,0,0,1-.49.08,1.4,1.4,0,0,1-1.31-.9Zm-1-2.83-2.08-5.51-2.08,5.51Z" style="fill:#263238"></path><path d="M146.05,139.4a1.34,1.34,0,0,1,1.87-.18,8.31,8.31,0,0,0,4.9,2,5.58,5.58,0,0,0,3.21-.95,2.29,2.29,0,0,0,1.1-1.85,1.51,1.51,0,0,0-.23-.82,2.66,2.66,0,0,0-.77-.77,10.43,10.43,0,0,0-3.52-1.2h-.05a14.08,14.08,0,0,1-3.31-1,5.54,5.54,0,0,1-2.38-2,3.92,3.92,0,0,1-.59-2.11,4.74,4.74,0,0,1,2.05-3.74,7.61,7.61,0,0,1,4.44-1.36,10.1,10.1,0,0,1,5.59,2,1.32,1.32,0,0,1,.36,1.82,1.29,1.29,0,0,1-1.82.39,7.47,7.47,0,0,0-4.13-1.64,4.89,4.89,0,0,0-2.87.87,2,2,0,0,0-1,1.61,1.22,1.22,0,0,0,.18.72,2.45,2.45,0,0,0,.69.67A8.94,8.94,0,0,0,153,133h.05a15.17,15.17,0,0,1,3.54,1.07,6,6,0,0,1,2.56,2.13,4.14,4.14,0,0,1,.62,2.18,4.94,4.94,0,0,1-2.21,4,8,8,0,0,1-4.74,1.46,11.08,11.08,0,0,1-6.57-2.56A1.37,1.37,0,0,1,146.05,139.4Z" style="fill:#263238"></path><path d="M162.9,139.4a1.34,1.34,0,0,1,1.87-.18,8.31,8.31,0,0,0,4.9,2,5.58,5.58,0,0,0,3.21-.95,2.29,2.29,0,0,0,1.1-1.85,1.51,1.51,0,0,0-.23-.82,2.66,2.66,0,0,0-.77-.77,10.36,10.36,0,0,0-3.51-1.2h-.06a13.86,13.86,0,0,1-3.3-1,5.51,5.51,0,0,1-2.39-2,4,4,0,0,1-.59-2.11,4.74,4.74,0,0,1,2.05-3.74,7.61,7.61,0,0,1,4.44-1.36,10.1,10.1,0,0,1,5.59,2,1.32,1.32,0,0,1,.36,1.82,1.29,1.29,0,0,1-1.82.39,7.47,7.47,0,0,0-4.13-1.64,4.92,4.92,0,0,0-2.87.87,2,2,0,0,0-1,1.61,1.22,1.22,0,0,0,.18.72,2.45,2.45,0,0,0,.69.67,9,9,0,0,0,3.21,1.13h.05a15.17,15.17,0,0,1,3.54,1.07,6.06,6.06,0,0,1,2.57,2.13,4.22,4.22,0,0,1,.61,2.18,5,5,0,0,1-2.2,4,8.07,8.07,0,0,1-4.75,1.46,11.08,11.08,0,0,1-6.57-2.56A1.37,1.37,0,0,1,162.9,139.4Z" style="fill:#263238"></path><path d="M203.58,128l-6.29,15a.68.68,0,0,1-.12.24l0,0a1.53,1.53,0,0,1-.13.16c0,.05,0,.05,0,.07a1,1,0,0,0-.18.13h0c-.08,0-.13.13-.23.15h0s0,0,0,0a1.23,1.23,0,0,0-.21.05h0a.64.64,0,0,1-.25,0,.66.66,0,0,1-.24,0h-.07a1,1,0,0,0-.18-.05s0,0-.05,0a.44.44,0,0,1-.23-.15h0l-.18-.13,0-.07c0-.06-.08-.11-.1-.16s-.05,0-.05,0a.66.66,0,0,1-.11-.24l-3.36-8L188,143a1.33,1.33,0,0,1-.1.24,0,0,0,0,0,0,0l-.16.16c0,.05,0,.05,0,.07a.65.65,0,0,0-.16.13h-.05c-.08,0-.15.13-.2.15h0a0,0,0,0,0,0,0,.44.44,0,0,0-.2.05h-.08a.61.61,0,0,1-.23,0,.77.77,0,0,1-.26,0h-.07a1,1,0,0,0-.18-.05s0,0-.05,0a.61.61,0,0,1-.23-.15h0c-.08-.05-.1-.1-.18-.13l0-.07c-.05-.06-.08-.11-.13-.16v0a2.6,2.6,0,0,1-.13-.24l-6.31-15a1.39,1.39,0,0,1,.77-1.82,1.37,1.37,0,0,1,1.82.74l5,11.88L190,131a1.41,1.41,0,0,1,1.33-.88,1.48,1.48,0,0,1,1.34.88l3.31,7.87L201,127a1.43,1.43,0,0,1,1.87-.74A1.38,1.38,0,0,1,203.58,128Z" style="fill:#263238"></path><path d="M221.45,128.14a9.4,9.4,0,0,1,0,13,8.39,8.39,0,0,1-6.13,2.75,8.64,8.64,0,0,1-6.28-2.75,9.56,9.56,0,0,1,0-13,8.55,8.55,0,0,1,6.28-2.74A8.31,8.31,0,0,1,221.45,128.14Zm-.33,6.49a6.66,6.66,0,0,0-1.74-4.49,5.54,5.54,0,0,0-8.21,0,6.52,6.52,0,0,0-1.74,4.49,6.42,6.42,0,0,0,1.74,4.47,5.5,5.5,0,0,0,8.21,0A6.56,6.56,0,0,0,221.12,134.63Z" style="fill:#263238"></path><path d="M241,141.74a1.4,1.4,0,0,1-.9,1.79,2,2,0,0,1-.56.08h0a1.88,1.88,0,0,1-1-.28,2.64,2.64,0,0,1-.82-.9,6.88,6.88,0,0,1-.54-3.08,2.11,2.11,0,0,0-.3-1.1,2.38,2.38,0,0,0-.77-.74,4.89,4.89,0,0,0-1.44-.62h-3v5.57a1.43,1.43,0,0,1-1.43,1.41,1.4,1.4,0,0,1-1.41-1.41V127.32a1.39,1.39,0,0,1,1.41-1.41h4.59a5.49,5.49,0,0,1,5.49,5.52,5.42,5.42,0,0,1-2,4.2,4.3,4.3,0,0,1,.9,1,4.91,4.91,0,0,1,.84,2.77,7,7,0,0,0,.1,1.52A1.33,1.33,0,0,1,241,141.74Zm-3.59-10.31a2.64,2.64,0,0,0-2.64-2.67h-3.16V134h3.16A2.63,2.63,0,0,0,237.38,131.43Z" style="fill:#263238"></path><path d="M245.13,142.46V127.32a1.39,1.39,0,0,1,1.41-1.41h3a9,9,0,0,1,0,18h-3A1.4,1.4,0,0,1,245.13,142.46ZM248,141h1.59a6.13,6.13,0,0,0,0-12.26H248Z" style="fill:#263238"></path><path d="M117.24,169.32v4.81a.2.2,0,0,1-.4,0v-5.39a.21.21,0,0,1,.07-.23.23.23,0,0,1,.29.05l3.56,4.94v-4.78a.21.21,0,1,1,.41,0v5.41a.2.2,0,0,1-.21.2.19.19,0,0,1-.16-.08s0,0,0,0Z"></path><path d="M122.9,172.28a2,2,0,0,1,4-.15h0v0a.19.19,0,0,1-.2.19H123.3a1.63,1.63,0,0,0,1.6,1.58,1.54,1.54,0,0,0,1.32-.75.2.2,0,0,1,.27-.07.21.21,0,0,1,.07.29,2,2,0,0,1-1.66.93A2,2,0,0,1,122.9,172.28Zm.43-.33h3.11a1.58,1.58,0,0,0-1.54-1.33A1.6,1.6,0,0,0,123.33,172Z"></path><path d="M129.47,174.3a.2.2,0,0,1-.08-.1l-1.54-3.67a.19.19,0,0,1,.1-.26.2.2,0,0,1,.26.11l1.36,3.24,1-2.26a.22.22,0,0,1,.4,0l1,2.26,1.35-3.24a.22.22,0,0,1,.27-.11.19.19,0,0,1,.1.26l-1.53,3.66a.25.25,0,0,1-.08.1.18.18,0,0,1-.1,0h0a.2.2,0,0,1-.16-.13h0l-.95-2.27-.95,2.27h0a.2.2,0,0,1-.18.13l-.07,0Z"></path><path d="M137.94,168.66a.2.2,0,0,1,.2-.2h1.66a1.67,1.67,0,1,1,0,3.34l-1.45,0v2.31a.2.2,0,0,1-.21.2.2.2,0,0,1-.2-.2Zm1.86,2.75a1.29,1.29,0,0,0,1.27-1.28,1.27,1.27,0,0,0-1.27-1.26h-1.45v2.54Z"></path><path d="M146.19,170.42v3.71a.2.2,0,1,1-.4,0v-.61a2,2,0,0,1-1.55.81,2.06,2.06,0,0,1,0-4.11,2,2,0,0,1,1.55.8v-.6a.2.2,0,0,1,.4,0Zm-.4,1.85a1.55,1.55,0,1,0-1.55,1.66A1.61,1.61,0,0,0,145.79,172.27Z"></path><path d="M147.65,173.47a.2.2,0,0,1,.29,0,2.16,2.16,0,0,0,1.25.48,1.23,1.23,0,0,0,.79-.26.61.61,0,0,0,.31-.5.65.65,0,0,0-.3-.5,1.86,1.86,0,0,0-.87-.3h0a2.37,2.37,0,0,1-.93-.32.85.85,0,0,1-.44-.74,1,1,0,0,1,.44-.81,1.83,1.83,0,0,1,1-.27,2.2,2.2,0,0,1,1.22.44.21.21,0,0,1,.06.29.2.2,0,0,1-.27.06,1.79,1.79,0,0,0-1-.42,1.23,1.23,0,0,0-.78.24.6.6,0,0,0-.26.47.48.48,0,0,0,.23.41,2,2,0,0,0,.84.29h0a2.74,2.74,0,0,1,1,.33,1,1,0,0,1,0,1.67,1.69,1.69,0,0,1-1,.33,2.46,2.46,0,0,1-1.51-.59A.18.18,0,0,1,147.65,173.47Z"></path><path d="M151.7,173.47a.19.19,0,0,1,.28,0,2.22,2.22,0,0,0,1.26.48,1.18,1.18,0,0,0,.78-.26.61.61,0,0,0,.31-.5.64.64,0,0,0-.29-.5,1.9,1.9,0,0,0-.87-.3h0a2.31,2.31,0,0,1-.93-.32.86.86,0,0,1-.45-.74,1,1,0,0,1,.45-.81,1.82,1.82,0,0,1,1-.27,2.23,2.23,0,0,1,1.23.44.21.21,0,0,1-.22.35,1.73,1.73,0,0,0-1-.42,1.27,1.27,0,0,0-.78.24.63.63,0,0,0-.26.47.49.49,0,0,0,.24.41,2,2,0,0,0,.84.29h0a2.63,2.63,0,0,1,1,.33,1,1,0,0,1,.46.84,1,1,0,0,1-.46.83,1.71,1.71,0,0,1-1,.33,2.52,2.52,0,0,1-1.52-.59A.19.19,0,0,1,151.7,173.47Z"></path><path d="M157.36,174.3a.2.2,0,0,1-.08-.1l-1.54-3.67a.19.19,0,0,1,.1-.26.2.2,0,0,1,.26.11l1.36,3.24.95-2.26a.22.22,0,0,1,.4,0l.95,2.26,1.35-3.24a.21.21,0,0,1,.26-.11.19.19,0,0,1,.11.26L160,174.19a.25.25,0,0,1-.08.1.18.18,0,0,1-.1,0h0a.2.2,0,0,1-.16-.13h0l-.95-2.27-1,2.27h0a.2.2,0,0,1-.18.13l-.07,0Z"></path><path d="M164.76,170.22a2.06,2.06,0,1,1-1.95,2.05A2,2,0,0,1,164.76,170.22Zm0,3.71a1.66,1.66,0,1,0-1.54-1.66A1.61,1.61,0,0,0,164.76,173.93Z"></path><path d="M168.09,170.43a.2.2,0,0,1,.21-.2.19.19,0,0,1,.19.2v.9l.06-.1a2,2,0,0,1,1.64-1,.19.19,0,0,1,.2.2.2.2,0,0,1-.2.2,1.48,1.48,0,0,0-1.19.67,3.29,3.29,0,0,0-.49,1,.1.1,0,0,0,0,.06v1.81a.2.2,0,0,1-.19.2.2.2,0,0,1-.21-.2Z"></path><path d="M174.85,173.53a2,2,0,0,1-1.58.8,2.06,2.06,0,0,1,0-4.11,2,2,0,0,1,1.58.8v-2.36a.2.2,0,0,1,.21-.2.2.2,0,0,1,.2.2v5.47a.2.2,0,0,1-.2.2.2.2,0,0,1-.21-.2Zm0-1.18v-.14a1.64,1.64,0,1,0,0,.14Z"></path><rect x="116.27" y="178.57" width="146.98" height="16.08" style="fill:#ebebeb"></rect><path d="M119.61,202.34a3.11,3.11,0,0,1,1.9.65.21.21,0,0,1,0,.29.2.2,0,0,1-.29,0,2.67,2.67,0,0,0-1.64-.57,2.57,2.57,0,1,0,0,5.14,2.51,2.51,0,0,0,1.63-.57.22.22,0,0,1,.27.34,3.11,3.11,0,0,1-1.9.64,3,3,0,1,1,0-6Z"></path><path d="M124.86,204.19a2.06,2.06,0,1,1-1.94,2.05A2,2,0,0,1,124.86,204.19Zm0,3.71a1.66,1.66,0,1,0-1.54-1.66A1.62,1.62,0,0,0,124.86,207.9Z"></path><path d="M131.3,205.87A1.27,1.27,0,0,0,130,204.6a1.29,1.29,0,0,0-1.28,1.27v2.26s0,.07,0,.09a.18.18,0,0,1-.15.08h-.05a.21.21,0,0,1-.13-.11,0,0,0,0,1,0,0h0V204.4a.19.19,0,0,1,.2-.2.19.19,0,0,1,.19.2v.39a1.67,1.67,0,0,1,2.95,1.08v2.23a.2.2,0,1,1-.4,0Z"></path><path d="M135.32,202.64a.21.21,0,0,1-.2.2c-.29,0-.44.06-.52.16a1,1,0,0,0-.17.68v.44H135a.21.21,0,1,1,0,.41h-.58v3.58a.21.21,0,0,1-.2.2.21.21,0,0,1-.21-.2v-3.58h-.55a.2.2,0,0,1-.2-.21.2.2,0,0,1,.2-.2H134v-.44a1.4,1.4,0,0,1,.26-1,1.12,1.12,0,0,1,.84-.3A.22.22,0,0,1,135.32,202.64Z"></path><path d="M136.55,203.05a.21.21,0,1,1,.41,0v.19a.21.21,0,1,1-.41,0Zm0,1.34a.19.19,0,0,1,.2-.2.2.2,0,0,1,.21.2v3.71a.2.2,0,0,1-.21.2.2.2,0,0,1-.2-.2Z"></path><path d="M138.9,204.4a.2.2,0,0,1,.21-.2.2.2,0,0,1,.2.2v.9a.93.93,0,0,1,.05-.1,2,2,0,0,1,1.65-1,.19.19,0,0,1,.2.2.2.2,0,0,1-.2.2,1.47,1.47,0,0,0-1.19.67,3.68,3.68,0,0,0-.5,1,.18.18,0,0,0,0,.06v1.81a.21.21,0,0,1-.41,0Z"></path><path d="M148.47,205.87a1.3,1.3,0,0,0-1.28-1.28,1.28,1.28,0,0,0-1.26,1.28v2.28h0a.22.22,0,0,1-.1.11.19.19,0,0,1-.1,0h-.06l0,0,0,0,0,0h0s0,0,0,0v-.07h0v-2.24a1.27,1.27,0,1,0-2.54,0v2.24a.19.19,0,0,1-.09.16l0,0h-.08a.22.22,0,0,1-.17-.15v-3.76a.19.19,0,0,1,.19-.19.19.19,0,0,1,.2.19v.39a1.64,1.64,0,0,1,1.27-.58,1.67,1.67,0,0,1,1.47.87,1.7,1.7,0,0,1,1.47-.87,1.66,1.66,0,0,1,1.67,1.67v2.24a.19.19,0,0,1-.2.19.19.19,0,0,1-.19-.19Z"></path><path d="M153.61,203.29v4.81a.2.2,0,0,1-.4,0v-5.39a.21.21,0,0,1,.07-.23.23.23,0,0,1,.29.05l3.56,4.94v-4.78a.21.21,0,1,1,.41,0v5.41a.2.2,0,0,1-.21.2.19.19,0,0,1-.16-.08s0,0,0,0Z"></path><path d="M159.27,206.25a2,2,0,0,1,4-.15h0v0a.2.2,0,0,1-.2.19h-3.38a1.62,1.62,0,0,0,1.6,1.58,1.54,1.54,0,0,0,1.32-.75.2.2,0,0,1,.27-.07.22.22,0,0,1,.07.29,2,2,0,0,1-1.66.93A2,2,0,0,1,159.27,206.25Zm.43-.33h3.11a1.58,1.58,0,0,0-1.54-1.33A1.6,1.6,0,0,0,159.7,205.92Z"></path><path d="M165.84,208.27a.2.2,0,0,1-.08-.1l-1.54-3.67a.19.19,0,0,1,.1-.26.2.2,0,0,1,.26.11l1.36,3.24.95-2.26a.22.22,0,0,1,.4,0l.94,2.26,1.36-3.24a.21.21,0,0,1,.26-.11.19.19,0,0,1,.11.26l-1.53,3.66a.25.25,0,0,1-.08.1.21.21,0,0,1-.1,0h0a.2.2,0,0,1-.16-.13h0l-.95-2.27-1,2.27h0a.2.2,0,0,1-.18.13l-.07,0Z"></path><path d="M174.31,202.63a.2.2,0,0,1,.2-.2h1.66a1.67,1.67,0,1,1,0,3.34l-1.45,0v2.31a.2.2,0,0,1-.21.2.2.2,0,0,1-.2-.2Zm1.86,2.75a1.29,1.29,0,0,0,1.27-1.28,1.27,1.27,0,0,0-1.27-1.26h-1.45v2.54Z"></path><path d="M182.56,204.39v3.71a.21.21,0,0,1-.41,0v-.61a1.92,1.92,0,0,1-1.54.81,2.06,2.06,0,0,1,0-4.11,1.91,1.91,0,0,1,1.54.8v-.6a.2.2,0,0,1,.21-.2A.2.2,0,0,1,182.56,204.39Zm-.41,1.85a1.54,1.54,0,1,0-1.54,1.66A1.6,1.6,0,0,0,182.15,206.24Z"></path><path d="M184,207.44a.2.2,0,0,1,.29,0,2.16,2.16,0,0,0,1.25.48,1.18,1.18,0,0,0,.78-.26.59.59,0,0,0,.31-.5.61.61,0,0,0-.29-.5,1.9,1.9,0,0,0-.87-.3h0a2.37,2.37,0,0,1-.93-.32.85.85,0,0,1-.44-.74,1,1,0,0,1,.44-.81,1.83,1.83,0,0,1,1-.27,2.2,2.2,0,0,1,1.22.44.22.22,0,0,1,.06.29.22.22,0,0,1-.28.06,1.73,1.73,0,0,0-1-.42,1.23,1.23,0,0,0-.78.24.6.6,0,0,0-.26.47.48.48,0,0,0,.23.41,2,2,0,0,0,.84.29h0a2.74,2.74,0,0,1,1,.33,1,1,0,0,1,0,1.67,1.69,1.69,0,0,1-1,.33,2.46,2.46,0,0,1-1.51-.59A.18.18,0,0,1,184,207.44Z"></path><path d="M188.07,207.44a.19.19,0,0,1,.28,0,2.22,2.22,0,0,0,1.26.48,1.18,1.18,0,0,0,.78-.26.61.61,0,0,0,.31-.5.64.64,0,0,0-.29-.5,1.91,1.91,0,0,0-.88-.3h0a2.31,2.31,0,0,1-.93-.32.86.86,0,0,1-.45-.74,1,1,0,0,1,.45-.81,1.8,1.8,0,0,1,1-.27,2.23,2.23,0,0,1,1.23.44.22.22,0,0,1,.06.29.22.22,0,0,1-.28.06,1.73,1.73,0,0,0-1-.42,1.27,1.27,0,0,0-.78.24.63.63,0,0,0-.26.47.49.49,0,0,0,.24.41,2,2,0,0,0,.84.29h0a2.62,2.62,0,0,1,1,.33,1,1,0,0,1,0,1.67,1.66,1.66,0,0,1-1,.33,2.52,2.52,0,0,1-1.52-.59A.19.19,0,0,1,188.07,207.44Z"></path><path d="M193.73,208.27a.2.2,0,0,1-.08-.1l-1.55-3.67a.2.2,0,1,1,.37-.15l1.36,3.24.95-2.26a.22.22,0,0,1,.19-.13.23.23,0,0,1,.21.13l.94,2.26,1.36-3.24a.21.21,0,0,1,.26-.11.2.2,0,0,1,.11.26l-1.53,3.66a.39.39,0,0,1-.08.1.21.21,0,0,1-.1,0h0a.2.2,0,0,1-.16-.13h0l-1-2.27-.94,2.27h0a.2.2,0,0,1-.18.13l-.07,0Z"></path><path d="M201.13,204.19a2.06,2.06,0,1,1-1.95,2.05A2,2,0,0,1,201.13,204.19Zm0,3.71a1.66,1.66,0,1,0-1.55-1.66A1.61,1.61,0,0,0,201.13,207.9Z"></path><path d="M204.45,204.4a.2.2,0,0,1,.21-.2.2.2,0,0,1,.2.2v.9a.37.37,0,0,1,.06-.1,2,2,0,0,1,1.64-1,.19.19,0,0,1,.2.2.2.2,0,0,1-.2.2,1.47,1.47,0,0,0-1.19.67,3.68,3.68,0,0,0-.5,1,.18.18,0,0,0,0,.06v1.81a.21.21,0,0,1-.41,0Z"></path><path d="M211.22,207.5a2,2,0,0,1-1.58.8,2.06,2.06,0,0,1,0-4.11,2,2,0,0,1,1.58.8v-2.36a.2.2,0,0,1,.21-.2.2.2,0,0,1,.2.2v5.47a.2.2,0,0,1-.2.2.2.2,0,0,1-.21-.2Zm0-1.18v-.14a1.64,1.64,0,1,0,0,.14Z"></path><rect x="116.27" y="212.54" width="146.98" height="16.08" style="fill:#ebebeb"></rect><path d="M351.07,154.23v26.86h-7.6V154.23c0-10.22-7.76-18.53-17.3-18.53s-17.31,8.31-17.31,18.53v26.86h-7.59V154.23c0-14.63,11.17-26.53,24.9-26.53S351.07,139.6,351.07,154.23Z" style="fill:#dbdbdb"></path><polygon points="301.27 161.21 308.86 161.52 308.86 181.09 301.27 181.09 301.27 161.21" style="fill:#c7c7c7"></polygon><polygon points="351.06 163.24 351.06 181.09 343.47 181.09 343.47 162.93 351.06 163.24" style="fill:#c7c7c7"></polygon><rect x="291.54" y="171.15" width="69.26" height="57.48" style="fill:#398AB7"></rect><rect x="291.54" y="171.15" width="34.63" height="57.48" style="opacity:0.1"></rect><path d="M329.42,199.51l2.9,13.76H320l2.9-13.76a6.16,6.16,0,1,1,6.51,0Z" style="fill:#263238"></path><path d="M387.17,175l-3.1-.5A23.45,23.45,0,0,0,340.67,159l-2.78-1.46A26.59,26.59,0,0,1,387.17,175Z" style="fill:#37474f"></path><path d="M383.24,175.09l.12-.71a22.73,22.73,0,0,0-42.07-15l-.35.59-4.05-2.13.38-.65a27.31,27.31,0,0,1,50.61,18l-.12.71ZM366,147.17a24.17,24.17,0,0,1,18.87,26.73l1.68.27a25.86,25.86,0,0,0-47.66-16.95l1.5.79A24.14,24.14,0,0,1,366,147.17Z" style="fill:#37474f"></path><polygon points="380.44 172.22 381.88 171.09 385.28 175.65 389.57 172 390.62 173.43 384.88 178.3 380.44 172.22" style="fill:#37474f"></polygon><path d="M384.76,179.35l-5.31-7.26,2.56-2,3.39,4.53,4.28-3.64,1.92,2.58Zm-3.33-7,3.58,4.89,4.64-3.94-.2-.26-4.29,3.64-3.42-4.58Z" style="fill:#37474f"></path><path d="M334.42,167.26l3.1.5a23.45,23.45,0,0,0,43.4,15.53l2.78,1.46a26.59,26.59,0,0,1-49.28-17.49Z" style="fill:#37474f"></path><path d="M354.92,198.14a27.29,27.29,0,0,1-21.2-31l.11-.71,4.52.72-.12.71a22.73,22.73,0,0,0,42.07,15.06l.35-.6,4.05,2.13-.38.65A27.23,27.23,0,0,1,354.92,198.14Zm-19.89-30A25.87,25.87,0,0,0,382.7,185l-1.51-.79a24.17,24.17,0,0,1-44.48-15.88Z" style="fill:#37474f"></path><polygon points="341.15 170.03 339.71 171.16 336.31 166.6 332.03 170.25 330.97 168.82 336.71 163.95 341.15 170.03" style="fill:#37474f"></polygon><path d="M331.91,171.29,330,168.71l6.84-5.81,5.31,7.26-2.56,2-3.38-4.53Zm0-2.35.2.26,4.28-3.64,3.42,4.58.31-.25L336.58,165Z" style="fill:#37474f"></path><path d="M127.43,184.46a9.59,9.59,0,0,1-4.3,4.3,8.31,8.31,0,0,1,1.79-2.5A8.51,8.51,0,0,1,127.43,184.46Z" style="fill:#263238"></path><path d="M123.13,184.46a8.59,8.59,0,0,1,2.5,1.8,8.33,8.33,0,0,1,1.8,2.5,9.46,9.46,0,0,1-4.3-4.3Z" style="fill:#263238"></path><path d="M128.32,186.61a8.77,8.77,0,0,1-3,.5,8.47,8.47,0,0,1-3-.5,8.26,8.26,0,0,1,3-.5A8.54,8.54,0,0,1,128.32,186.61Z" style="fill:#263238"></path><path d="M125.28,183.57a9.49,9.49,0,0,1,0,6.08,9.49,9.49,0,0,1,0-6.08Z" style="fill:#263238"></path><path d="M137.91,184.46a8.46,8.46,0,0,1-1.8,2.5,8.33,8.33,0,0,1-2.5,1.8,9.59,9.59,0,0,1,4.3-4.3Z" style="fill:#263238"></path><path d="M133.61,184.46a9.59,9.59,0,0,1,4.3,4.3,8.33,8.33,0,0,1-2.5-1.8A8.46,8.46,0,0,1,133.61,184.46Z" style="fill:#263238"></path><path d="M138.8,186.61a8.73,8.73,0,0,1-3,.5,8.51,8.51,0,0,1-3-.5,8.29,8.29,0,0,1,3-.5A8.51,8.51,0,0,1,138.8,186.61Z" style="fill:#263238"></path><path d="M135.76,183.57a8.73,8.73,0,0,1,.5,3,8.54,8.54,0,0,1-.5,3,8.33,8.33,0,0,1-.5-3A8.73,8.73,0,0,1,135.76,183.57Z" style="fill:#263238"></path><path d="M148.39,184.46a8.62,8.62,0,0,1-1.79,2.5,8.51,8.51,0,0,1-2.51,1.8,8.33,8.33,0,0,1,1.8-2.5A8.59,8.59,0,0,1,148.39,184.46Z" style="fill:#263238"></path><path d="M144.09,184.46a8.51,8.51,0,0,1,2.51,1.8,8.31,8.31,0,0,1,1.79,2.5,9.59,9.59,0,0,1-4.3-4.3Z" style="fill:#263238"></path><path d="M149.28,186.61a8.7,8.7,0,0,1-3,.5,8.54,8.54,0,0,1-3-.5,8.33,8.33,0,0,1,3-.5A8.47,8.47,0,0,1,149.28,186.61Z" style="fill:#263238"></path><path d="M146.24,183.57a9.49,9.49,0,0,1,0,6.08,9.49,9.49,0,0,1,0-6.08Z" style="fill:#263238"></path><path d="M158.88,184.46a9.59,9.59,0,0,1-4.3,4.3,8.31,8.31,0,0,1,1.79-2.5A8.51,8.51,0,0,1,158.88,184.46Z" style="fill:#263238"></path><path d="M154.58,184.46a8.59,8.59,0,0,1,2.5,1.8,8.33,8.33,0,0,1,1.8,2.5,8.51,8.51,0,0,1-2.51-1.8A8.62,8.62,0,0,1,154.58,184.46Z" style="fill:#263238"></path><path d="M159.77,186.61a8.77,8.77,0,0,1-3,.5,8.47,8.47,0,0,1-3-.5,8.26,8.26,0,0,1,3-.5A8.54,8.54,0,0,1,159.77,186.61Z" style="fill:#263238"></path><path d="M156.73,183.57a9.49,9.49,0,0,1,0,6.08,9.49,9.49,0,0,1,0-6.08Z" style="fill:#263238"></path><path d="M169.36,184.46a8.46,8.46,0,0,1-1.8,2.5,8.33,8.33,0,0,1-2.5,1.8,8.33,8.33,0,0,1,1.8-2.5A8.46,8.46,0,0,1,169.36,184.46Z" style="fill:#263238"></path><path d="M165.06,184.46a9.59,9.59,0,0,1,4.3,4.3,8.33,8.33,0,0,1-2.5-1.8A8.46,8.46,0,0,1,165.06,184.46Z" style="fill:#263238"></path><path d="M170.25,186.61a8.73,8.73,0,0,1-3,.5,8.51,8.51,0,0,1-3-.5,8.29,8.29,0,0,1,3-.5A8.51,8.51,0,0,1,170.25,186.61Z" style="fill:#263238"></path><path d="M167.21,183.57a8.73,8.73,0,0,1,.5,3,8.33,8.33,0,0,1-.5,3,8.54,8.54,0,0,1-.5-3A8.73,8.73,0,0,1,167.21,183.57Z" style="fill:#263238"></path><path d="M179.84,184.46a8.43,8.43,0,0,1-1.79,2.5,8.59,8.59,0,0,1-2.5,1.8,8.14,8.14,0,0,1,1.79-2.5A8.59,8.59,0,0,1,179.84,184.46Z" style="fill:#263238"></path><path d="M175.55,184.46a8.59,8.59,0,0,1,2.5,1.8,8.31,8.31,0,0,1,1.79,2.5,8.59,8.59,0,0,1-2.5-1.8A8.43,8.43,0,0,1,175.55,184.46Z" style="fill:#263238"></path><path d="M180.73,186.61a8.7,8.7,0,0,1-3,.5,8.45,8.45,0,0,1-3-.5,8.24,8.24,0,0,1,3-.5A8.47,8.47,0,0,1,180.73,186.61Z" style="fill:#263238"></path><path d="M177.69,183.57a9.49,9.49,0,0,1,0,6.08,9.49,9.49,0,0,1,0-6.08Z" style="fill:#263238"></path><path d="M190.33,184.46a9.59,9.59,0,0,1-4.3,4.3,8.31,8.31,0,0,1,1.79-2.5A8.51,8.51,0,0,1,190.33,184.46Z" style="fill:#263238"></path><path d="M186,184.46a8.59,8.59,0,0,1,2.5,1.8,8.33,8.33,0,0,1,1.8,2.5,8.51,8.51,0,0,1-2.51-1.8A8.62,8.62,0,0,1,186,184.46Z" style="fill:#263238"></path><path d="M191.22,186.61a8.77,8.77,0,0,1-3,.5,8.47,8.47,0,0,1-3-.5,8.26,8.26,0,0,1,3-.5A8.54,8.54,0,0,1,191.22,186.61Z" style="fill:#263238"></path><path d="M188.18,183.57a9.49,9.49,0,0,1,0,6.08,9.49,9.49,0,0,1,0-6.08Z" style="fill:#263238"></path><path d="M127.43,218.44a8.78,8.78,0,0,1-1.8,2.5,8.59,8.59,0,0,1-2.5,1.8,8.48,8.48,0,0,1,1.79-2.51A8.66,8.66,0,0,1,127.43,218.44Z" style="fill:#263238"></path><path d="M123.13,218.44a8.75,8.75,0,0,1,2.5,1.79,8.51,8.51,0,0,1,1.8,2.51,9.46,9.46,0,0,1-4.3-4.3Z" style="fill:#263238"></path><path d="M128.32,220.59a9.49,9.49,0,0,1-6.08,0,9.49,9.49,0,0,1,6.08,0Z" style="fill:#263238"></path><path d="M125.28,217.55a9.49,9.49,0,0,1,0,6.08,9.49,9.49,0,0,1,0-6.08Z" style="fill:#263238"></path><path d="M137.91,218.44a8.59,8.59,0,0,1-1.8,2.5,8.33,8.33,0,0,1-2.5,1.8,9.46,9.46,0,0,1,4.3-4.3Z" style="fill:#263238"></path><path d="M133.61,218.44a9.46,9.46,0,0,1,4.3,4.3,8.33,8.33,0,0,1-2.5-1.8A8.59,8.59,0,0,1,133.61,218.44Z" style="fill:#263238"></path><path d="M138.8,220.59a9.49,9.49,0,0,1-6.08,0,9.49,9.49,0,0,1,6.08,0Z" style="fill:#263238"></path><path d="M135.76,217.55a8.7,8.7,0,0,1,.5,3,8.54,8.54,0,0,1-.5,3,8.33,8.33,0,0,1-.5-3A8.7,8.7,0,0,1,135.76,217.55Z" style="fill:#263238"></path><path d="M148.39,218.44a8.75,8.75,0,0,1-1.79,2.5,8.51,8.51,0,0,1-2.51,1.8,8.51,8.51,0,0,1,1.8-2.51A8.75,8.75,0,0,1,148.39,218.44Z" style="fill:#263238"></path><path d="M144.09,218.44a8.66,8.66,0,0,1,2.51,1.79,8.48,8.48,0,0,1,1.79,2.51,8.59,8.59,0,0,1-2.5-1.8A8.78,8.78,0,0,1,144.09,218.44Z" style="fill:#263238"></path><path d="M149.28,220.59a9.49,9.49,0,0,1-6.08,0,9.49,9.49,0,0,1,6.08,0Z" style="fill:#263238"></path><path d="M146.24,217.55a9.49,9.49,0,0,1,0,6.08,9.49,9.49,0,0,1,0-6.08Z" style="fill:#263238"></path><path d="M158.88,218.44a8.78,8.78,0,0,1-1.8,2.5,8.59,8.59,0,0,1-2.5,1.8,8.48,8.48,0,0,1,1.79-2.51A8.66,8.66,0,0,1,158.88,218.44Z" style="fill:#263238"></path><path d="M154.58,218.44a8.75,8.75,0,0,1,2.5,1.79,8.51,8.51,0,0,1,1.8,2.51,8.51,8.51,0,0,1-2.51-1.8A8.75,8.75,0,0,1,154.58,218.44Z" style="fill:#263238"></path><path d="M159.77,220.59a9.49,9.49,0,0,1-6.08,0,9.49,9.49,0,0,1,6.08,0Z" style="fill:#263238"></path><path d="M156.73,217.55a9.49,9.49,0,0,1,0,6.08,9.49,9.49,0,0,1,0-6.08Z" style="fill:#263238"></path><rect x="159.44" y="215.39" width="0.66" height="10.4" style="fill:#263238"></rect><rect x="116.55" y="242.11" width="56.99" height="16.45" style="fill:#398AB7"></rect><path d="M122.67,250.86a3.13,3.13,0,0,1,3.13-3.08,3.17,3.17,0,0,1,2,.67.5.5,0,0,1,.09.68.5.5,0,0,1-.68.1,2.14,2.14,0,0,0-1.38-.47,2.24,2.24,0,0,0-1.54.61,2.13,2.13,0,0,0-.62,1.49,2.07,2.07,0,0,0,.62,1.48,2.25,2.25,0,0,0,1.54.62,2.16,2.16,0,0,0,1.38-.47.49.49,0,0,1,.59.78,3.16,3.16,0,0,1-2,.66A3.11,3.11,0,0,1,122.67,250.86Z" style="fill:#fff"></path><path d="M134.06,248.7a3.14,3.14,0,0,1,0,4.32,2.81,2.81,0,0,1-2,.91,2.93,2.93,0,0,1-2.1-.91,3.2,3.2,0,0,1,0-4.32,2.86,2.86,0,0,1,2.1-.92A2.75,2.75,0,0,1,134.06,248.7Zm-.11,2.16a2.24,2.24,0,0,0-.58-1.5,1.86,1.86,0,0,0-1.35-.6,1.88,1.88,0,0,0-1.39.6,2.19,2.19,0,0,0-.58,1.5,2.1,2.1,0,0,0,.58,1.48A1.86,1.86,0,0,0,132,253a1.84,1.84,0,0,0,1.35-.62A2.15,2.15,0,0,0,134,250.86Z" style="fill:#fff"></path><path d="M137.32,253.46a.47.47,0,1,1-.93,0v-5h0a.45.45,0,0,1,.19-.39.46.46,0,0,1,.64.1L140,252V248.5a.47.47,0,0,1,.47-.46.47.47,0,0,1,.47.46v5a.48.48,0,0,1-.47.47.43.43,0,0,1-.35-.17l0,0-2.73-3.79Z" style="fill:#fff"></path><path d="M146.53,248.9h-1.35v4.56a.47.47,0,0,1-.94,0V248.9h-1.35a.47.47,0,0,1-.47-.48.46.46,0,0,1,.47-.47h3.64a.47.47,0,0,1,.47.47A.48.48,0,0,1,146.53,248.9Z" style="fill:#fff"></path><path d="M148.47,248.42a.46.46,0,0,1,.47-.47.48.48,0,0,1,.48.47v5a.47.47,0,0,1-.48.47.46.46,0,0,1-.47-.47Z" style="fill:#fff"></path><path d="M152,253.46a.47.47,0,1,1-.93,0v-5h0a.45.45,0,0,1,.19-.39.47.47,0,0,1,.65.1l2.76,3.82V248.5a.47.47,0,0,1,.93,0v5a.47.47,0,0,1-.47.47.46.46,0,0,1-.35-.17.1.1,0,0,1,0,0L152,249.92Z" style="fill:#fff"></path><path d="M159.65,253.93a2.46,2.46,0,0,1-2.47-2.47v-3a.46.46,0,0,1,.47-.47.48.48,0,0,1,.48.47v3a1.52,1.52,0,1,0,3,0v-3a.48.48,0,0,1,1,0v3A2.47,2.47,0,0,1,159.65,253.93Z" style="fill:#fff"></path><path d="M163.69,253.46v-5a.47.47,0,0,1,.47-.47H167a.48.48,0,0,1,0,1h-2.32v1.56h2a.48.48,0,0,1,.47.47.47.47,0,0,1-.47.48h-2V253H167a.47.47,0,0,1,0,.94h-2.8A.47.47,0,0,1,163.69,253.46Z" style="fill:#fff"></path><path d="M193,250.86a3.13,3.13,0,0,1,3.13-3.08,3.17,3.17,0,0,1,2,.67.5.5,0,0,1,.09.68.5.5,0,0,1-.68.1,2.14,2.14,0,0,0-1.38-.47,2.24,2.24,0,0,0-1.54.61,2.13,2.13,0,0,0-.62,1.49,2.07,2.07,0,0,0,.62,1.48,2.25,2.25,0,0,0,1.54.62,2.16,2.16,0,0,0,1.38-.47.49.49,0,0,1,.59.78,3.16,3.16,0,0,1-2,.66A3.11,3.11,0,0,1,193,250.86Z" style="fill:#ebebeb"></path><path d="M202.8,252.52h-2.08l-.42,1.11a.48.48,0,0,1-.44.3.5.5,0,0,1-.17,0,.5.5,0,0,1-.28-.62l1.89-5a.48.48,0,0,1,.45-.3.47.47,0,0,1,.46.3l1.88,5a.48.48,0,0,1-.28.62.39.39,0,0,1-.16,0,.46.46,0,0,1-.44-.3Zm-.35-.94-.7-1.83-.69,1.83Z" style="fill:#ebebeb"></path><path d="M206.2,253.46a.47.47,0,1,1-.93,0v-5h0a.45.45,0,0,1,.19-.39.47.47,0,0,1,.65.1l2.76,3.82V248.5a.46.46,0,0,1,.46-.46.47.47,0,0,1,.47.46v5a.47.47,0,0,1-.47.47.43.43,0,0,1-.35-.17.07.07,0,0,1,0,0l-2.74-3.79Z" style="fill:#ebebeb"></path><path d="M211.58,250.86a3.15,3.15,0,0,1,3.14-3.08,3.19,3.19,0,0,1,2,.67.5.5,0,0,1,.08.68.49.49,0,0,1-.68.1,2.09,2.09,0,0,0-1.37-.47,2.24,2.24,0,0,0-1.54.61,2.09,2.09,0,0,0-.63,1.49,2,2,0,0,0,.63,1.48,2.25,2.25,0,0,0,1.54.62,2.11,2.11,0,0,0,1.37-.47.49.49,0,0,1,.6.78,3.18,3.18,0,0,1-2,.66A3.12,3.12,0,0,1,211.58,250.86Z" style="fill:#ebebeb"></path><path d="M218.43,253.46v-5a.46.46,0,0,1,.47-.47h2.79a.48.48,0,0,1,0,1h-2.31v1.56h2a.49.49,0,0,1,.47.47.48.48,0,0,1-.47.48h-2V253h2.31a.47.47,0,1,1,0,.94H218.9A.46.46,0,0,1,218.43,253.46Z" style="fill:#ebebeb"></path><path d="M223.49,253.46v-5a.48.48,0,0,1,.95,0V253h2.32a.47.47,0,1,1,0,.94H224A.47.47,0,0,1,223.49,253.46Z" style="fill:#ebebeb"></path></g><g id="freepik--speech-bubble--inject-37"><path d="M224.57,243.39a36.29,36.29,0,0,0,57.93,29.15l17.78,4.54-7.4-16.56a36.3,36.3,0,1,0-68.31-17.13Z" style="fill:#fff"></path><path d="M224.57,243.39a36.55,36.55,0,0,0,5.47,19,40,40,0,0,0,2.89,4.07,40.7,40.7,0,0,0,3.48,3.59c.64.54,1.2,1.16,1.89,1.64l2,1.48c.67.5,1.42.88,2.12,1.32l1.07.64c.37.21.75.37,1.13.55.75.35,1.5.72,2.26,1.06l2.34.85a18.25,18.25,0,0,0,2.4.69c.81.19,1.6.45,2.42.56a34.53,34.53,0,0,0,4.95.54,29.57,29.57,0,0,0,5-.07,36.12,36.12,0,0,0,9.66-2.25,36.86,36.86,0,0,0,8.65-4.82l.13-.1.17,0,17.8,4.46-.51.61-7.44-16.55-.1-.21.12-.21a35.94,35.94,0,0,0,1.19-31.41,37.41,37.41,0,0,0-9.65-13,35.88,35.88,0,0,0-14.37-7.44,36.3,36.3,0,0,0-16.23-.43,36.18,36.18,0,0,0-28.83,35.34Zm0,0a36.47,36.47,0,0,1,14-28.65A36.17,36.17,0,0,1,269.76,208a36.47,36.47,0,0,1,14.72,7.4,36.64,36.64,0,0,1,13.15,29.42,36.08,36.08,0,0,1-4.33,16l0-.43,7.36,16.58.37.83-.88-.23-17.76-4.62.3-.06a36.32,36.32,0,0,1-18.69,7,32.62,32.62,0,0,1-5,0,36.55,36.55,0,0,1-5-.61c-.83-.12-1.63-.4-2.45-.59a20.11,20.11,0,0,1-2.4-.73l-2.36-.88c-.76-.35-1.51-.74-2.26-1.1-.37-.19-.76-.36-1.12-.56l-1.07-.66c-.71-.46-1.45-.85-2.12-1.35l-2-1.52a22.66,22.66,0,0,1-1.89-1.64,41,41,0,0,1-3.48-3.62,42,42,0,0,1-2.88-4.11A36.48,36.48,0,0,1,224.57,243.39Z" style="fill:#263238"></path><path d="M244.12,226.87a11.93,11.93,0,1,0,16.87,0A11.92,11.92,0,0,0,244.12,226.87Zm2.42,2.43a2.23,2.23,0,1,1,0,3.16A2.23,2.23,0,0,1,246.54,229.3Z" style="fill:#398AB7"></path><rect x="258.22" y="237.31" width="3.61" height="10.95" transform="translate(272.21 598.33) rotate(-135)" style="fill:#398AB7"></rect><polygon points="263.94 241.42 258.69 246.67 259.98 247.96 262.15 247.29 261.48 249.46 263.61 251.59 266.5 251 265.9 253.88 266.38 254.36 268.55 253.69 267.88 255.86 270.06 255.19 269.38 257.37 271.08 259.06 273.96 258.46 273.36 261.34 274.84 262.82 280.69 263.41 280.09 257.57 263.94 241.42" style="fill:#ebebeb"></polygon><rect x="259.07" y="251.88" width="21.28" height="0.51" transform="translate(282.15 621.14) rotate(-135)" style="fill:#dbdbdb"></rect><path d="M242.18,235.31a10.42,10.42,0,0,0,3.06,7.31,10.26,10.26,0,0,0,14.5-.12,10.27,10.27,0,0,0,0-14.37,10.27,10.27,0,0,0-14.5-.13A10.42,10.42,0,0,0,242.18,235.31Zm0,0a10.48,10.48,0,0,1,10.37-10.49,10.49,10.49,0,1,1-10.37,10.49Z" style="opacity:0.1"></path></g><g id="freepik--Device--inject-37"><rect x="234.13" y="459.24" width="134.27" height="6.02" style="fill:#455a64"></rect><rect x="234.13" y="459.24" width="67.58" height="6.02" style="fill:#37474f"></rect><polygon points="297.61 465.25 166.75 465.25 149.65 376.38 280.5 376.38 297.61 465.25" style="fill:#37474f"></polygon><polygon points="292.29 465.25 161.43 465.25 144.32 376.38 275.18 376.38 292.29 465.25" style="fill:#455a64"></polygon><path d="M226.27,420.82a7.19,7.19,0,0,1-7.27,8,8.86,8.86,0,0,1-8.66-8,7.18,7.18,0,0,1,7.27-8A8.87,8.87,0,0,1,226.27,420.82Z" style="fill:#fff"></path></g></svg>